<?xml version="1.0" encoding="UTF-8" standalone="no"?>
<!-- Uploaded to: SVG Repo, www.svgrepo.com, Generator: SVG Repo Mixer Tools -->

<svg
   viewBox="0 0 20.885824 19.590756"
   fill="none"
   version="1.1"
	 id="complete"
   sodipodi:docname="ru.svg"
   inkscape:export-filename="../menu-icons/ru.svg"
   inkscape:export-xdpi="96"
   inkscape:export-ydpi="96"
   xml:space="preserve"
   inkscape:version="1.3 (0e150ed6c4, 2023-07-21)"
   width="20.885824"
   height="19.590755"
   xmlns:inkscape="http://www.inkscape.org/namespaces/inkscape"
   xmlns:sodipodi="http://sodipodi.sourceforge.net/DTD/sodipodi-0.dtd"
   xmlns:xlink="http://www.w3.org/1999/xlink"
   xmlns="http://www.w3.org/2000/svg"
   xmlns:svg="http://www.w3.org/2000/svg"><defs
   id="defs1" /><sodipodi:namedview
   id="namedview1"
   pagecolor="#ffffff"
   bordercolor="#000000"
   borderopacity="0.25"
   inkscape:showpageshadow="2"
   inkscape:pageopacity="0.0"
   inkscape:pagecheckerboard="0"
   inkscape:deskcolor="#d1d1d1"
   inkscape:zoom="35.76243"
   inkscape:cx="6.6130852"
   inkscape:cy="10.30411"
   inkscape:window-width="1920"
   inkscape:window-height="935"
   inkscape:window-x="0"
   inkscape:window-y="32"
   inkscape:window-maximized="1"
   inkscape:current-layer="svg1" />&#10;	<style
   id="style1">&#10;	path {&#10;		animation: slideTo infinite .2s;&#10;		overflow: hidden;&#10;	}&#10;&#10;	@keyframes slideTo {&#10;		from {&#10;			visibility: visible;&#10;&#10;		}&#10;		to {&#10;			visibility: hidden;&#10;&#10;		}&#10;	}&#10;&#10;	 .white {&#10;		animation: slideFrom infinite 2s;&#10;	}&#10;	.blue {&#10;		animation: slideFrom infinite .2s;&#10;		animation-delay: .2s;&#10;	}&#10;&#10;	@keyframes slideFrom {&#10;		0% {&#10;			transform: translateY(100%);&#10;			visibility: hidden;&#10;		}&#10;		50% {&#10;			transform: translateY(-90%);&#10;			visibility: visible;&#10;		}&#10;		100% {&#10;			transform: translateY(-60%);&#10;			visibility: visible;&#10;		}&#10;	}&#10;	</style>&#10;&#10;	<path
   class="bars"
   d="M 0.80489999,7.73654 H 12.062557 M 0.80489999,13.261196 H 12.062557 M 0.80489999,18.785853 H 12.062557"
   stroke="#000000"
   stroke-width="1.6098"
   stroke-linecap="round"
   stroke-linejoin="round"
   id="path1" />&#10;	&#10;	&#10;	<rect
   class="red"
   style="fill:#ff0000;stroke-width:0.03"
   id="rect6"
   width="0.01375999"
   height="0.097003661"
   x="2.9238179"
   y="15.302122"
   ry="0.0068799951" />&#10;<g
   id="g1"
   transform="matrix(0.01399285,0,0,0.01185091,11.930402,-2.0668865e-7)"><g
     fill-rule="evenodd"
     stroke-width="1pt"
     id="g3"><path
       d="M 0,0 H 640 V 480 H 0 Z"
       id="path1-3" /><path
       fill="#009900"
       d="M 426.7,0 H 640 V 480 H 426.7 Z"
       id="path2" /><path
       fill="#bf0000"
       d="M 213.3,0 H 426.7 V 480 H 213.3 Z"
       id="path3" /></g><g
     fill="#ffffff"
     fill-rule="evenodd"
     stroke="#bd6b00"
     stroke-width="0.5"
     transform="matrix(1.06346,0,0,1.06346,1,27.3)"
     id="g69"><path
       d="m 319.5,225.8 h 8.3 c 0,3.2 2,6.6 4.5,8.5 h -16 c 2.5,-2.2 3.2,-5 3.2,-8.5 z"
       id="path4" /><path
       stroke="none"
       d="m 266.7,178.5 4.6,5 57,0.2 4.6,-5 -14.6,-0.3 -7,-5 h -23 l -6.6,5.1 z"
       id="path5" /><path
       d="m 290,172.7 h 19.7 c 2.6,-1.4 3.5,-5.9 3.5,-8.4 0,-7.4 -5.3,-11 -10.5,-11.2 -0.8,0 -1.7,-0.6 -1.9,-1.3 -0.5,-1.6 -0.4,-2.7 -1,-2.6 -0.4,0 -0.3,1 -0.7,2.4 -0.3,0.8 -1.1,1.5 -2,1.6 -6.4,0.3 -10.6,5 -10.5,11.1 0.1,4 0.6,6.4 3.4,8.4 z"
       id="path6" /><path
       stroke="none"
       d="M 257.7,242.8 H 342 l -7.5,-6.1 h -69.4 l -7.5,6.1 z"
       id="path7" /><path
       d="m 296.4,219.7 1.5,4.6 h 3.5 l -2.8,-4.6 z m -2,4.6 1,4.6 h 4 l -1.5,-4.6 z m 7,0 2.8,4.6 h 5.9 l -4.6,-4.6 z m -34.5,10.4 c 3.1,-2.9 5.1,-5.3 5.1,-8.8 h 7.6 c 0,2 0.7,3.1 1.8,3 h 7.7 v -4.5 h -5.6 v -24.7 c -0.2,-8.8 10.6,-13.8 15,-13.8 h -26.3 v -0.8 h 55.3 v 0.8 H 301 c 7.9,0 15.5,7.5 15.6,13.8 v 7 h -1 l -0.1,-6.9 c 0,-6.9 -8.7,-13.3 -15.7,-13.1 -6,0.1 -15.4,5.9 -15.3,13 v 2.2 l 14.3,0.1 -0.1,2.5 2.2,1.4 4.5,1.4 v 3.8 l 3.2,0.9 v 3.7 l 3.8,1.7 v 3.8 l 2.5,1.5 -0.1,3.9 3.3,2.3 h -7.8 l 4.9,5.5 h -7.3 l -3.6,-5.5 h -4.7 l 2.1,5.4 h -5 l -1.3,-5.4 h -6.2 v 5.8 H 267 Z m 22.2,-15 v 4.6 h 5.3 l -1,-4.6 H 289 Z"
       id="path8" /><path
       fill="none"
       d="m 289.4,211.7 h 3.3 v 7.6 h -3.3 z"
       id="path9" /><path
       fill="none"
       d="m 284.7,219.8 h 3.2 v -5.6 c 0,-2.4 2.2,-4.9 3.2,-5 1.2,0 2.9,2.3 3,4.8 v 5.8 h 3.4 v -14.4 h -12.8 z m 25.6,3.3 h 4 v 3.2 h -4 z m -2.4,-5.3 h 4 v 3.1 h -4 z m -3.9,-5.4 h 4 v 3.1 h -4 z m -3.3,-4.5 h 4 v 3.1 h -4 z"
       id="path10" /><path
       fill="none"
       d="m 298,219.8 4.2,0.2 7.3,6.4 v -3.8 l -2.5,-1.8 v -3 l -3.6,-2 v -3.3 l -3.5,-1.2 V 207 l -1.7,-1.5 -0.1,14.4 z"
       id="path11" /><path
       d="m 315.4,210.3 h 1 v 7.1 h -1 z"
       id="path12" /><g
       id="af-a"><path
         d="m 257.3,186.5 c -1.2,-2 -2.7,2.8 -7.8,6.3 -2.3,1.6 -4,5.9 -4,8.7 0,2 0.2,3.9 0,5.8 -0.1,1.1 -1.4,3.8 -0.5,4.5 2.2,1.6 5.1,5.4 6.4,6.7 1.2,1 2.2,-5.3 3,-8 1,-3 0.6,-6.7 3.2,-9.4 1.8,-2 6.4,-3.8 6,-4.6 z"
         id="path13" /><path
         fill="#bf0000"
         d="m 257,201.9 a 10,10 0 0 0 -1.6,-2.6 6.1,6.1 0 0 0 -2.4,-1.8 5.3,5.3 0 0 1 -2.4,-1.5 3.6,3.6 0 0 1 -0.8,-1.5 5.9,5.9 0 0 1 0,-2 l -0.3,0.3 c -2.3,1.6 -4,5.9 -4,8.7 a 28.5,28.5 0 0 0 0,2.3 c 0.2,0.5 0.3,1 0.6,1.3 l 1.1,0.8 2.7,0.7 a 7.1,7.1 0 0 1 2.6,2 10.5,10.5 0 0 1 1.8,2.6 l 0.2,-0.8 c 0.8,-2.7 0.7,-5.9 2.6,-8.5 z"
         id="path14" /><path
         fill="none"
         d="m 249.8,192.4 c -0.5,3.3 1.4,4.5 3.2,5.1 1.8,0.7 3.3,2.6 4,4.4 m -11.7,1.5 c 0.8,3 2.8,2.6 4.6,3.2 1.8,0.7 3.7,3 4.5,4.8"
         id="path15" /><path
         d="m 255.6,184.5 1,-0.6 17.7,29.9 -1,0.6 -17.7,-30 z"
         id="path16" /><path
         d="m 257.5,183.3 a 2,2 0 1 1 -4,0 2,2 0 1 1 4,0 z m 15.2,-24 h 7.2 v 1.6 h -7.2 z m 0,3.1 h 7.2 v 13.8 h -7.2 z m -0.4,-5 h 8 c 0.2,-2.7 -2.5,-5.6 -4,-5.6 -1.6,0.1 -4.1,3 -4,5.6 z"
         id="path17" /><path
         fill="#bd6b00"
         stroke="none"
         d="m 292.6,155.8 c -1.5,0.6 -2.7,2.3 -3.4,4.3 -0.7,2 -1,4.3 -0.6,6.1 0,0.7 0.3,1.1 0.5,1.5 0.2,0.3 0.4,0.5 0.6,0.5 0.3,0 0.6,0 0.7,-0.3 l 0.2,-0.8 c -0.1,-2 -0.1,-3.8 0.3,-5.4 a 7.7,7.7 0 0 1 3,-4.4 c 0.3,-0.2 0.4,-0.5 0.5,-0.7 a 1,1 0 0 0 -0.3,-0.7 c -0.4,-0.3 -1,-0.4 -1.5,-0.1 z m 0.2,0.4 c 0.4,-0.2 0.8,0 1,0.1 l 0.1,0.2 c 0,0.1 0,0.2 -0.3,0.4 a 8.2,8.2 0 0 0 -3.1,4.6 16.7,16.7 0 0 0 -0.3,5.6 1,1 0 0 1 -0.2,0.6 c 0,0 0,0.1 -0.2,0 0,0 -0.2,0 -0.4,-0.3 a 3.9,3.9 0 0 1 -0.4,-1.2 c -0.3,-1.8 0,-4 0.7,-6 0.7,-1.8 1.8,-3.4 3,-4 z"
         id="path18" /><path
         fill="#bd6b00"
         stroke="none"
         d="m 295.2,157.7 c -1.5,0.7 -2.5,2.3 -3,4.2 a 13.6,13.6 0 0 0 -0.3,5.9 c 0.2,1.3 1,2 1.6,2 0.3,0.1 0.6,0 0.8,-0.3 0.2,-0.3 0.3,-0.6 0.2,-1 -0.4,-1.6 -0.5,-3.4 -0.3,-5.1 0.3,-1.7 1,-3.2 2.2,-4.1 0.3,-0.3 0.5,-0.5 0.5,-0.8 a 0.8,0.8 0 0 0 -0.2,-0.6 c -0.4,-0.3 -1,-0.4 -1.5,-0.2 z m 0.2,0.5 c 0.4,-0.2 0.8,-0.1 1,0 l 0.1,0.3 -0.3,0.4 a 6.5,6.5 0 0 0 -2.4,4.4 c -0.3,1.8 -0.1,3.7 0.2,5.2 0.1,0.4 0,0.6 0,0.8 l -0.5,0.1 c -0.3,0 -1,-0.5 -1.2,-1.7 -0.3,-1.7 -0.2,-3.9 0.3,-5.7 0.5,-1.8 1.5,-3.3 2.8,-3.8 z"
         id="path19" /><path
         d="m 272.3,187.4 h 8 v 11 h -8 z m 0.5,17.4 h 7.7 v 2.4 h -7.7 z m -0.2,4.1 h 8 v 8.7 h -8 z m -0.6,10.5 h 8.7 v 4.9 H 272 Z m 1.1,-16.6 h 7 l 1.4,-2.4 h -9.6 z m 9.4,-8.6 0.1,-6 h 4.8 a 17.4,17.4 0 0 0 -4.9,6 z"
         id="path20" /><path
         fill="none"
         d="m 273.6,196.7 c 0,1.3 1.5,0.8 1.5,0.1 v -5.6 c 0,-1 2.4,-0.8 2.4,-0.1 v 6 c 0,1 1.7,0.9 1.6,0 v -7 c 0,-2.2 -5.5,-2.1 -5.5,-0.1 z m 0,13.3 h 5.7 v 7 h -5.7 z"
         id="path21" /><path
         d="m 277.2,213 h 2 v 1 h -2 z m -3.5,0 h 2 v 1 h -2 z m 2,-3 h 1.5 v 3 h -1.5 z m 0,4 h 1.5 v 3.1 h -1.5 z M 244,139 c 0.4,5.5 -1.4,8.6 -4.3,8.1 -0.8,-3 1,-5.1 4.3,-8.1 z m -6.5,12.3 c -2.6,-1.3 -0.7,-11.5 0.3,-15.8 0.7,5.5 2,13.3 -0.3,15.8 z"
         id="path22" /><path
         d="m 238.4,151.8 c 4.4,1.5 8,-3.2 9.1,-8.7 -3.6,5 -9.5,5 -9,8.7 z m -3.3,5.1 c -3.4,-0.9 -1.4,-11.7 -0.7,-16 0.7,4.5 3.1,14.5 0.7,16 z m 1.2,-0.3 c 0.2,-3.7 3.9,-2.7 6.5,-4.7 -0.5,2 -2,5.2 -6.5,4.7 z m -4.2,5 c -3.4,-1 -1.4,-12.6 -1.6,-17.4 1,4.2 4.2,16.3 1.6,17.4 z m 1.6,-0.5 c 2.8,0.9 6.5,-1 6.8,-4.3 -2.5,1.7 -6.3,0.4 -6.8,4.3 z"
         id="path23" /><path
         d="m 229.5,166.7 c -3.2,0.3 -1.8,-9.6 -1.8,-18.8 1.2,8.6 4.5,16.5 1.8,18.8 z"
         id="path24" /><path
         d="m 230.7,166.3 c 2.2,1 6.1,-0.7 7.2,-4.4 -4,1.7 -6.6,0 -7.2,4.4 z m 25.6,-22.2 c -0.6,4.9 -2.6,7.7 -5.5,7.2 -0.8,-3 1.6,-5 5.5,-7.2 z m -7.8,12.4 c 4.9,0.7 6.6,-3 10,-7.9 -4.7,3.4 -10.2,4 -10,8 z"
         id="path25" /><path
         d="m 247,156 c -2.6,-3.2 0,-7.3 2,-10.7 -0.4,5.1 1.3,8 -2,10.7 z m -1,5.3 c -0.4,-3.2 5,-3.9 7.4,-5.6 -0.9,1.8 -2,6.7 -7.5,5.6 z"
         id="path26" /><path
         d="m 244.8,161.3 c -3.7,-0.4 -2.2,-6.7 0.5,-10.1 -1.1,4.8 2,8.1 -0.5,10.1 z"
         id="path27" /><path
         d="m 242,166.6 c -4.2,-2 -1.5,-7.2 0,-10.3 -0.6,4.1 2.8,7.2 0,10.2 z"
         id="path28" /><path
         d="m 242.8,166 c 2.2,3 6.5,-0.8 7.4,-5.2 -3.7,3.1 -6.5,2.6 -7.4,5.3 z m -9.6,20.3 c -0.4,-4.3 2.8,-12 0.5,-16.2 -0.3,-0.6 0.7,-2.1 1.4,-1.2 1,1.5 2,5.7 2.5,4.1 0.4,-1.7 0.5,-4.6 2,-5.2 1,-0.3 2.3,-0.6 1.9,1 -0.4,1.4 -1.2,3.4 -0.3,3.5 0.5,0 2,-2 3.3,-3 1,-0.8 2.6,0.6 1,1.8 -4.8,4 -9.5,5.9 -12.3,15.2 z m -8.7,64.5 c -0.6,0 -1.3,-0.3 -0.6,0.6 5.7,7 7.3,9 15.6,8 8.3,-1.1 10.3,-3.4 16.2,-6.7 a 14.6,14.6 0 0 1 11.2,-1 c 1.6,0.5 2.6,0.5 1.4,-0.7 -1.2,-1.1 -2.5,-2.7 -4,-3.8 a 17.5,17.5 0 0 0 -12.7,-2.7 c -6,1 -11.1,4.9 -17.2,6.4 a 25,25 0 0 1 -9.9,0 z m 47.8,12.5 c 1,0.2 1.7,2.2 2.3,0.9 0.8,-2.3 0.2,-4 -0.8,-3.9 -1.2,0.3 -3.1,3 -1.5,3 z"
         id="path29" /><path
         stroke="none"
         d="m 220.6,183 c -1.2,-1.4 -0.9,-1.8 1,-1.9 1.4,0 4.2,1 5.3,0.1 1,-0.7 0.5,-3.7 1,-5 0.2,-0.9 0.7,-2 2,-0.2 3.6,5.8 8,12.8 10,19.6 1,3.8 0,9.8 -3.4,13.8 0,-3.4 -1.2,-5.7 -2.7,-8.6 -2,-3.7 -9.1,-14 -13.2,-17.9 z"
         id="path30" /><path
         d="m 235.5,213.4 c 4,0 4.7,-5.3 4.7,-6.8 -2,0.4 -5.4,3.7 -4.7,6.8 z m 34.5,51.9 c 2.8,0.6 2.7,-6.2 -0.2,-9.1 1.3,4.4 -2,8.4 0.1,9 z m -1.2,-0.1 c 0.2,3.2 -8,-0.4 -10,-3 4.8,2.1 9.8,0.4 10,3 z m -3.5,-4.6 c 0.3,3.1 -7,0.3 -9.3,-2.1 4.9,1.6 9,-0.5 9.3,2 z m 1.3,0.4 c 2.9,0.7 2.4,-6.4 -0.4,-8.8 1.4,4.7 -1.8,8.1 0.4,8.8 z m -3,-4.3 c 2.9,0.7 1.2,-5.4 -0.9,-7.8 0.4,4.4 -1,7.5 1,7.8 z m -1.5,0 c 0.3,3.2 -5.4,0.8 -7.6,-2.3 4.8,1.5 7.3,-0.3 7.6,2.3 z m -1.5,-2.5 c 1.8,-1.3 -0.1,-4.8 -3.7,-4.6 0.4,2.1 1.6,5.9 3.7,4.6 z m 14,14.7 c 0.1,3.2 -8,1.6 -10.6,-1.8 5.2,1 10.3,-0.8 10.5,1.8 z m -32.4,-5.8 c 0.3,3.2 -8.6,-0.4 -10.8,-3.4 4.7,1.6 10.5,0.8 10.8,3.4 z m 5.4,1.3 c 1.9,-1.3 -1.9,-4.7 -5,-5.5 0.4,2.1 3,6.8 5,5.6 z m 0.6,2.3 c 0.2,2.9 -9.5,1.3 -12,-1.4 8.3,1.5 11.7,-1.1 12,1.4 z"
         id="path31" /><path
         d="m 252.8,268.6 c 1,2.7 -8.3,2 -11.6,0.5 5.3,0 10.8,-2.4 11.6,-0.5 z"
         id="path32" /><path
         d="m 257.1,270.6 c 1,2.4 -7.6,2.4 -11.8,1 5.6,0 10.8,-3.4 11.8,-1 z m 6.3,1.3 c 1.6,2.9 -7.6,3.1 -10.5,1.7 5.2,-0.7 9.2,-4 10.5,-1.7 z M 252.7,267 c -2.9,1.8 -2.7,-3.6 -5,-7.3 3.6,3.3 7,5.6 5,7.3 z"
         id="path33" /><path
         d="m 257.9,269 c -2.4,2.1 -4.4,-5.3 -6.6,-9.5 3.6,4 8.8,7.7 6.6,9.4 z m 6.8,2 c -2,2.4 -8,-7 -10.2,-12 3.3,3.9 11.8,10 10.2,12 z m -5.8,7.2 c -1,3.6 -16.2,-3.4 -18,-7.1 8.8,4.6 18.2,3.6 18,7 z m -48.7,-73.8 c -0.4,-0.5 -1.4,0 -1.2,1.1 0.3,1.5 2.5,9.2 6.3,11.8 2.7,2 17,5.1 23.4,6.5 3.6,0.7 6.5,2.5 8.9,5.3 a 94.4,94.4 0 0 0 -3,-9.8 c -1.2,-3 -4.4,-6.2 -7.8,-6.3 -6.1,-0.3 -14.1,-0.8 -20,-3.3 a 16,16 0 0 1 -6.7,-5.3 z"
         id="path34" /><path
         d="m 245.5,234.9 c 2,1.4 4.1,-3.7 1.7,-8.6 -0.1,4.7 -3.8,6.3 -1.7,8.6 z"
         id="path35" /><path
         d="m 247.4,239.6 c 2.7,0.8 3.5,-4 1.8,-7.8 0.3,4.1 -4.3,6.6 -1.8,7.8 z"
         id="path36" /><path
         d="m 249.5,243.4 c 2.6,1.3 3.5,-3.6 1.7,-7.1 0.2,4.5 -3.7,5.9 -1.7,7 z"
         id="path37" /><path
         d="m 248.4,243.7 c -1,3 -7,-2.7 -8,-5.8 3.7,3.7 8.7,3.2 8,5.7 z"
         id="path38" /><path
         d="m 245.7,239 c -1.2,3 -8.7,-5 -10.4,-8.7 3.7,3.7 11.2,6.5 10.4,8.6 z"
         id="path39" /><path
         d="m 244.2,234.3 c -1.2,3.5 -9.3,-5.8 -11.7,-9.1 4,3.6 12.6,6.6 11.7,9.1 z m -0.3,-3.4 c 3,-0.6 -0.1,-3 -3.7,-6.9 -0.1,4.1 0.5,7 3.7,6.9 z"
         id="path40" /><path
         d="m 239,228.5 c 1.3,-1.3 -1.1,-1.9 -4.1,-5.3 -0.5,2.3 2.8,6.5 4.2,5.3 z m 14,15.2 c 1.6,1 2.6,-2.3 0.7,-5.2 -0.5,3.2 -2.1,4 -0.7,5.2 z m -34.2,-20.3 c -3.3,2 -8.6,-6 -10,-9.3 2.9,3.8 10.6,7.2 10,9.3 z"
         id="path41" /><path
         d="m 221.7,228 c -1.9,2 -7.7,-3.5 -9.7,-6.3 3,2.7 10.5,3 9.7,6.3 z"
         id="path42" /><path
         d="m 224.8,232.2 c -0.6,2.8 -9,-3.5 -11,-6.5 3.6,3.5 11.6,3.2 11,6.5 z"
         id="path43" /><path
         d="m 223.5,235.3 c -1.3,2.5 -8.2,-3.8 -9.9,-7 4.3,3.6 11,4.5 10,7 z M 220,223 c 2.1,-2.3 1.2,-3.4 -0.4,-7 -0.8,3.7 -2.1,5.2 0.4,7 z m 2.9,4.3 c 4,0.2 0,-4.6 -1,-8.7 0.4,4.6 -1,8.3 1,8.7 z"
         id="path44" /><path
         d="m 225.4,231.1 c 2.7,-0.6 2,-4.5 -0.2,-9.2 0.5,5.1 -2.3,8 0.2,9.2 z m -1,7.7 c -1,3 -8.8,-4 -10,-6.8 4,3.4 10.7,4.5 10,6.8 z"
         id="path45" /><path
         d="m 229.1,243.6 c -1.1,3 -9.3,-3.2 -11.8,-6.6 4.9,4 12.4,3.6 11.8,6.6 z"
         id="path46" /><path
         d="m 233.9,248.5 c -1.3,4.3 -9.9,-2.6 -12.4,-6 5.4,4.2 13,3 12.4,6 z m -8,-11 c 2.3,1.1 3.2,-5.4 1.9,-10.1 0,5 -4.7,8.8 -2,10 z"
         id="path47" /><path
         d="m 229.8,242.7 c 2.8,0.8 2,-6.3 -0.5,-11 -0.3,4.7 -2.3,9 0.5,11 z m 5,4.9 c 3,0.1 1,-6.1 -1.6,-9.6 0.4,4.5 -1,9 1.6,9.6 z m -5.5,2.6 c -1,1.6 -3.2,-1.3 -7,-3.5 3.4,1 7.4,2 7,3.5 z m -1.8,-52.7 c 3,-2.2 0.7,-6.2 0,-10 -1,3.6 -3.4,8.4 0,10 z m 0,5.3 c -4.5,-0.5 -3.8,-6.1 -4,-9.7 1.4,4.9 5,5.7 4,9.8 z m 0.6,-0.7 c 3.7,-0.2 3.5,-4.4 3.7,-8.6 -1.9,3.9 -4,4.5 -3.7,8.6 z"
         id="path48" /><path
         d="m 228,207.3 c -3,0.3 -4.4,-2.6 -5,-7 2.7,4.1 5.1,2.8 5,7 z m 1,-0.3 c 3.7,0.5 3,-3.8 3,-7 -1.2,3 -4.2,4 -3,7 z"
         id="path49" /><path
         d="m 223.2,205.2 c 0.3,2.8 2.1,7.6 5,6.5 1.1,-3.4 -2.6,-4.1 -5,-6.5 z"
         id="path50" /><path
         d="m 229,212 c -1.2,-2.4 3,-3.7 3.8,-6.9 0.5,4.6 0.1,7.6 -3.8,7 z m -11.9,-29.2 c 2.3,-2.4 0.3,-6.4 -0.4,-10.2 -1,3.6 -2.5,8.4 0.4,10.2 z m 0,4.6 c -4,0.5 -5,-7.7 -5.5,-11.3 1.4,4.9 6,7 5.5,11.4 z m 0.8,0 c 2.8,-1.5 2.2,-4.7 3,-7 -1.8,2.9 -3.6,3.3 -3,7 z"
         id="path51" /><path
         d="m 217,192.8 c -4.1,0.3 -6.6,-8.8 -6.8,-12.4 1.3,4.9 7.4,7.5 6.9,12.4 z m 0.9,-0.2 c 4,-0.9 3.5,-3.5 2.9,-7.6 -1.3,4.2 -3.5,3.3 -2.9,7.6 z"
         id="path52" /><path
         d="m 217,198 c -4.6,0.8 -4.3,-6.6 -8,-11.9 3.2,4 9,9 8,11.9 z m 1,-0.3 c 3.6,0.2 4,-5.1 3.8,-7.3 -0.9,2.2 -5,4.2 -3.7,7.4 z"
         id="path53" /><path
         d="m 209.8,192.3 c 1.7,5.7 4.2,11.4 7.2,11 1.5,-3.3 -2.9,-3.7 -7.2,-11 z"
         id="path54" /><path
         d="m 218.1,202.4 c -1.2,-2.5 3,-3.7 3.8,-6.9 0.5,4.6 0.1,7.6 -3.8,6.9 z m -7.1,-3.6 c 2.5,5.1 3.6,11 7,10.1 1.3,-4 -3.8,-4.8 -7,-10.1 z"
         id="path55" /><path
         d="m 218.7,208 c -1.5,-2.8 2.7,-3.7 3.8,-7.4 0.5,4.8 0,8.3 -3.8,7.3 z m 7.2,-34.5 c 2.4,0.6 5,-2.1 4.1,-6.2 -2.8,0.6 -4,3.2 -4.1,6.2 z m -7.9,-2.1 c 0.2,1.2 1.7,1.3 1.2,-0.4 a 5.3,5.3 0 0 1 0,-3.4 7.5,7.5 0 0 0 0,-4.6 c -0.4,-1 -1.8,-0.4 -1.2,0.4 0.6,0.9 0.7,2.8 0.2,3.7 -0.6,1.3 -0.4,3 -0.2,4.3 z m 22.9,16 c -1,1.3 -2.9,0.4 -1.4,-1.5 1.2,-1.5 3,-2.8 3,-4.4 0.2,-2 1.3,-5 2.4,-6.1 1.1,-1.1 2.4,0.4 1.2,1.2 -1.3,0.8 -2.2,4.4 -2.1,5.8 -0.1,2 -2,3.5 -3.1,5 z m -3,-2.3 c -1,1.4 -2.4,0.5 -1.6,-1.7 0.7,-1.5 0.8,-3.5 1.6,-4.6 1.2,-1.7 3,-3.1 4.1,-4.2 1.2,-1 2,0 1,1 a 27,27 0 0 0 -3.3,4 c -1.4,2.2 -0.8,4 -1.8,5.5 z m -15.7,-7.2 c -0.1,2 1.5,2.4 1.4,-0.4 0,-3 -2.2,-5.8 -1,-10.3 0.8,-2.2 0.8,-6.3 0.4,-8.4 -0.4,-2.2 -2,-0.8 -1.3,0.9 0.6,2 -0.1,5.6 -0.6,7.5 -1.5,5.4 1.2,8 1,10.7 z m 4.3,-11 c -0.2,1.9 -1.8,2 -1.3,-0.5 0.4,-2 0.4,-3.6 0,-5.3 -0.6,-2.1 -0.4,-5.7 0,-7.2 0.5,-1.6 2,-0.7 1.4,0.5 a 9.9,9.9 0 0 0 -0.3,5.9 c 0.6,2 0.5,4.8 0.2,6.7 z M 210.9,204 c 0.8,0.9 2,0.3 1,-1 -1,-1 -0.7,-1.2 -1.3,-2.4 -0.6,-1.4 -0.5,-2.1 -1.2,-3 -0.7,-1 -1.6,0 -1,0.7 0.8,1 0.6,1.6 1,2.5 1,1.5 0.7,2.3 1.5,3.2 z m 20.4,24.6 a 8.6,8.6 0 0 1 4.4,6.7 16,16 0 0 0 2,7.1 c -2,-0.5 -3,-3.7 -3.3,-6.8 -0.3,-3.2 -2,-4.5 -3,-7 z m 5.1,5.9 c 1.7,3.1 4,4.3 4.2,6.6 0.2,2.7 0.4,2.8 1.1,5.4 -2,-0.5 -2.5,-0.7 -3,-4.7 -0.3,-2.8 -2.6,-4.7 -2.3,-7.3 z"
         id="path56" /><path
         stroke="none"
         d="m 289,263.3 c 1,1.8 2,4.5 4,4 0,-1.3 -2.1,-2.3 -4,-4 z m 3,0.6 c 3.7,1.6 7,1.2 7.5,3.6 -3.6,0.4 -5,-1 -7.6,-3.6 z m -16.1,-12.7 a 14,14 0 0 1 5,7.7 29,29 0 0 0 3.6,7.8 13,13 0 0 1 -5.3,-7.4 c -0.7,-3 -1.6,-5.3 -3.3,-8 z m 3.1,0 c 2.8,2.2 5.4,4.8 6.2,7.9 0.8,2.9 1.3,5.1 3.2,8 -3,-1.9 -4.1,-4.7 -5,-7.8 -0.7,-3 -2.5,-5.2 -4.4,-8 z m 9.2,7.3 a 1.1,1.1 0 0 1 0.7,-1.2 33.4,33.4 0 0 1 2.6,-0.8 c 1,-0.3 1.6,0.4 1.6,0.9 v 2 c 0,0.7 -0.2,0.8 -0.7,0.9 -0.7,0.1 -1.7,0.2 -2.4,0.7 -0.6,0.4 -1.2,0.1 -1.5,-0.5 z m 10.6,0 c 0,-0.6 -0.2,-1.1 -0.6,-1.2 a 5.4,5.4 0 0 0 -2.4,-0.4 c -1,0 -1.1,0.2 -1.1,0.6 v 2.1 c 0,0.8 0,0.8 0.4,1 0.7,0 1.8,0 2.5,0.6 0.5,0.3 1,0 1.1,-0.6 z"
         id="path57" /></g><use
       xlink:href="#af-a"
       width="100%"
       height="100%"
       x="-600"
       transform="scale(-1,1)"
       id="use57" /><g
       stroke="none"
       id="g68"><path
         d="m 328.5,286.6 c 0,1.2 0.2,2.2 1,3.1 a 19,19 0 0 0 -13.8,1.1 c -1.8,0.8 -4,-1 -1.9,-2.7 3,-2.3 9.7,-1 14.7,-1.5 z m -57.5,0 a 7,7 0 0 1 -0.4,3 c 4.4,-1.7 9.1,-0.2 13.6,1.6 3,1.3 3.3,-1 2.8,-1.7 a 6.5,6.5 0 0 0 -5,-2.9 z m 3.8,-21.7 c -1.3,-0.5 -2.7,0 -4,1.4 -4.3,4.2 -9.4,8.3 -13.5,11.6 -1.5,1.3 -3,3.7 3.4,6 0.3,0.2 5,2 8,2 1.3,0 1.3,1.8 1,2.3 -0.5,1 -0.1,1.4 -1.1,2.3 -1.1,1 0,2.1 1,1.3 3.6,-3.2 9.6,-1.1 15.3,0.7 1.4,0.4 3.8,0.3 3.8,-1.6 0,-2 1.5,-3.4 2.4,-3.5 2.4,0.4 14,0.5 17.5,0.1 2,-0.3 2.2,2.9 3.3,4 0.8,0.9 3.7,1.1 5.8,0.2 4,-1.8 10,-1.8 12.5,0 1,0.7 1.9,0 1.3,-0.7 -0.8,-1 -0.7,-1.6 -1.1,-2.4 -1,-2 -0.2,-2.4 0.8,-2.5 11,-1.5 14.6,-5.2 11.2,-8.3 -4.4,-3.8 -9.2,-7.7 -13.4,-12.2 -1.2,-1.2 -2,-1.7 -4.3,-0.7 a 66.5,66.5 0 0 1 -25.3,5.9 76,76 0 0 1 -24.6,-5.8 z"
         id="path58" /><path
         fill="#bd6b00"
         d="m 326.6,265.5 -1.6,0.4 c -9,3.2 -17.2,5.4 -25.7,5.4 -8.3,0 -17,-2.4 -24.9,-5.6 a 2.3,2.3 0 0 0 -1.5,0 c -0.5,0.1 -1,0.4 -1.3,0.7 a 115.5,115.5 0 0 1 -11.8,10.3 c -0.7,0.5 -0.6,1.8 0.5,2.2 8.3,3 16.4,8.5 39.6,8.3 23.5,-0.2 31.8,-5.6 39.2,-8.1 0.5,-0.2 1,-0.5 1.3,-1 a 1,1 0 0 0 0.1,-0.8 2,2 0 0 0 -0.6,-0.8 c -4.3,-3.5 -8.8,-6.3 -11.8,-10.4 -0.3,-0.5 -0.9,-0.6 -1.5,-0.5 z m 0,0.5 c 0.5,0 1,0 1.1,0.3 3,4.3 7.7,7 11.9,10.5 l 0.4,0.7 a 0.5,0.5 0 0 1 0,0.4 c -0.1,0.3 -0.6,0.6 -1,0.7 -7.6,2.6 -15.7,8 -39,8.2 -23.2,0.2 -31.2,-5.3 -39.5,-8.3 -0.8,-0.4 -0.7,-1.2 -0.4,-1.4 4.2,-3.2 8.2,-6.8 11.8,-10.4 a 2.5,2.5 0 0 1 1.1,-0.6 h 1.2 a 68,68 0 0 0 25,5.6 c 8.7,0 17,-2.2 26,-5.3 a 6.7,6.7 0 0 1 1.5,-0.4 z"
         id="path59" /><path
         d="m 269.7,114.6 c 0,-1.4 2,-1.5 1.8,0.4 -0.3,2.3 4.5,8.3 4.9,12 0.3,2.5 -1.5,4.6 -3.2,6 a 6.6,6.6 0 0 1 -6.8,0.5 c -0.9,-0.8 -1.7,-3.3 -1,-4.3 0.2,-0.3 1.3,3.7 3.7,3.7 3.3,0 6,-2.5 6,-4.7 0.2,-3.8 -5.3,-9.8 -5.4,-13.6 z m 9.5,9.4 c 0.6,-0.4 1.4,1.3 0.8,1.7 -0.5,0.3 -1.5,-1.3 -0.8,-1.8 z m 1.5,-3.5 c -0.3,0.2 -0.8,0 -0.7,-0.2 a 12,12 0 0 1 3.6,-3.3 c 0.4,-0.2 1,0.4 0.8,0.7 a 11,11 0 0 1 -3.7,2.8 z m 12.6,-10 c 0.3,-0.6 2.1,-1.3 2.6,-1.7 0.4,-0.5 0.6,0.4 0.4,0.7 -0.3,0.7 -1.9,1.7 -2.6,1.8 -0.3,0 -0.6,-0.4 -0.4,-0.7 z m 4.3,0.3 a 8.3,8.3 0 0 1 2.5,-3.4 c 0.5,-0.3 1.3,0 1.1,0.4 a 9,9 0 0 1 -2.9,3.3 c -0.3,0.3 -0.8,0 -0.7,-0.3 z m -3.7,2.7 c -0.3,0.2 -0.1,0.7 0.1,0.8 0.6,0.2 1.5,0.2 2,0 0.6,-0.4 0.3,-2.9 -0.5,-1.6 -0.6,0.8 -1,0.6 -1.6,0.8 z m -7.3,5.6 c -1.3,-1 0.4,-2.4 1.7,-1.4 2.7,2 -4,9.8 -7.6,13.4 -0.7,0.7 -1.3,-1 -0.4,-1.9 a 33.7,33.7 0 0 0 6.7,-7.6 c 0.4,-0.5 0.7,-1.6 -0.4,-2.5 z m 15.3,-6.6 c 0.1,-1 -1.6,0 -1.6,-1.3 0,-0.7 1.9,-1.2 2.7,-0.4 1.3,1.4 0.3,3.7 -2,3.9 -1.8,0 -5,2.7 -4.5,3.2 0.5,0.7 5.4,1.1 8.3,0.7 1.8,-0.3 1.4,1.3 -0.4,1.5 -1.8,0.2 -3.2,0 -4.8,0.6 -2,0.5 -2.8,3 -3.9,4 -0.2,0.2 -0.8,-0.8 -0.6,-1.2 0.8,-1.2 2,-3 3.4,-3.6 0.8,-0.3 -2.4,-0.4 -3.4,-0.7 -0.8,-0.2 -0.6,-1.3 -0.3,-1.9 0.4,-0.8 3.4,-3.9 4.7,-3.8 1.1,0 2.3,-0.3 2.4,-1 z m 5,0.2 c 0.6,-0.5 1,-1.3 1.5,-1.8 0.3,-0.3 0.9,0 0.8,0.8 -0.1,0.7 -1,1.2 -1.5,1.7 -0.5,0.3 -1,-0.4 -0.7,-0.7 z m 6.5,-2.3 c 0.9,0 1,1.6 0.2,1.8 -0.6,0.2 -1,-1.7 -0.2,-1.8 z m -2.1,5 c 0,1.5 0.7,1.4 2,1.3 1.3,0 2.4,0 2.4,-1.2 0,-1.3 -0.7,-2.5 -1,-1.6 -0.1,0.8 -0.3,2.2 -0.8,1.6 -0.4,-0.5 -0.2,-0.6 -1,0.2 -0.5,0.5 -0.5,-0.2 -0.8,-0.6 -0.2,-0.3 -0.8,0.2 -0.8,0.4 z m -9.2,7.2 c -0.3,1.9 0,4.5 0.9,4.5 1.2,0 3.6,-4 4.8,-6.2 0.7,-1.2 1.8,-1.4 1.3,-0.1 -0.7,1.9 -0.6,6 0,7.2 0.4,0.6 3,-0.6 3.4,-1.5 0.8,-1.7 0.1,-4.8 0.4,-6.7 0.1,-1.2 1.3,-1.5 1.2,-0.3 A 75.6,75.6 0 0 0 314,127 c 0,1 2.9,2.4 3.3,-0.6 0.2,-1.8 1.2,-3.7 0,-5.7 -0.8,-1.3 1.1,-1.2 2.1,0.6 0.7,1.2 -0.6,3.2 -0.5,4.7 0,2.4 -1.8,3.8 -3.1,3.8 -1.2,0 -2,-1.5 -3,-1.5 -1,0 -2.2,1.7 -3,1.6 -3.6,-0.2 -1.7,-5.3 -2.8,-5.4 -1.2,0 -2.5,5 -4,4.9 -1.4,-0.2 -3,-4.2 -2.3,-5.8 0.5,-1.6 1.5,-2 1.4,-1 z m 16.9,-8 c -1.7,-1 0,-3.7 0.9,-2.8 1.6,2 3.2,6.5 4.4,6.9 0.7,0.2 0.6,-3.4 1.1,-5 0.4,-1.3 1.8,-0.9 1.6,0.7 -0.1,0.5 -2,6.4 -1.8,6.6 a 47.1,47.1 0 0 1 3.3,7.8 c 0.3,1.2 -1.1,0.4 -1.3,0.2 -0.9,-1.4 -2.4,-6.5 -2.4,-6.2 l -1.7,7.7 c -0.2,1 -1.7,0.8 -1.3,-1 0.3,-1.4 2.3,-8.3 2.2,-8.6 a 17.2,17.2 0 0 0 -5,-6.3 z"
         id="path60" /><path
         d="m 322,131.2 c -0.4,0 -1.2,1 1.2,1.5 3.1,0.6 6.6,-0.5 7.6,-3.6 1.3,-3.7 2,-7.2 2.7,-8.5 0.8,-1.5 1.8,-1.4 1,-3.6 -0.5,-1.7 -1.5,-1.2 -1.7,-0.3 -0.5,2.3 -2.6,10 -3.3,11.3 -1.2,2.6 -3.7,3.6 -7.5,3.2 z"
         id="path61" /><path
         d="m 328.4,119 c -0.4,-0.7 -1.2,0 -1,0.7 a 1.2,1.2 0 0 0 1.2,1 c 0.7,0 2.2,0.1 2.2,-1 0,-0.8 -0.7,-1.5 -1.1,-0.6 -0.5,0.8 -1,0.7 -1.3,0 z m 0.7,-3 c -0.2,0.2 0,1.1 0.3,1 a 7,7 0 0 0 3.3,-0.8 c 0.2,-0.2 0.1,-0.7 -0.2,-0.7 -1,0 -2.6,0 -3.4,0.5 z m 8.8,2.3 c 0.8,-1.2 2.8,-1.3 2,0.4 a 614.3,614.3 0 0 1 -6.3,12.3 c -0.8,1.4 -1.4,0.7 -0.8,-0.4 0.7,-1.4 4.9,-12 5.1,-12.3 z"
         id="path62" /><path
         d="m 330.2,133 c -0.2,-0.8 -1.5,-2 -1.3,0.2 0.2,3.8 5.5,2.6 7,1.3 1.5,-1.3 0.3,4.3 2.2,4.9 1,0.3 3,-1.1 4,-2.4 2.7,-3.5 4.5,-8.6 7,-12 1,-1.4 -0.5,-2.4 -1,-1.3 -2.4,3.8 -5.2,11.6 -8.3,13.6 -2.5,1.6 -1.7,-2 -1.8,-3.2 -0.1,-0.8 -1.1,-2 -2.4,-0.9 a 5.5,5.5 0 0 1 -3.7,1.2 c -0.7,0 -1.4,0 -1.7,-1.4 z"
         id="path63" /><path
         d="m 339.6,126 c 0,-0.3 -1.1,-0.4 -1,0.7 0,0.8 1,1 1.1,1 1.5,-1.2 -0.3,-0.6 -0.1,-1.8 z m -2.3,4.4 c -0.3,0 -0.6,1 0.2,1.1 l 3.9,-0.2 c 0.4,0 0.6,-0.9 -0.4,-0.8 -1.2,0 -2.7,-0.3 -3.7,0 z m -62,-16.6 c 0.5,0 1.6,1.4 1.5,1.9 0,0.2 -1.2,0 -1.5,-0.3 -0.3,-0.3 -0.2,-1.6 0,-1.6 z m -5.3,10.4 c -1,0.6 0.2,1.7 1,1.2 2.8,-1.9 7,-3.8 8,-7.5 0.3,-1.2 1.4,-3.1 2.5,-3.5 1,-0.5 2.6,1.9 3.6,0 0.6,-1 2.7,0.7 3.2,-0.4 0.6,-1.3 0.3,-2 0.3,-3.4 0,-0.8 -0.7,-1 -1.2,0.3 -0.2,0.6 0,1.2 -0.1,1.6 -0.2,0.2 -0.6,0.4 -1,0.2 -0.2,-0.2 0,-0.7 -0.6,-1 -0.2,0 -0.6,-0.1 -0.8,0.2 -0.7,1.3 -1,2.5 -2.1,1 -0.9,-1 -1.4,-3.1 -2,-0.3 -0.2,1 -1.7,2.4 -2.6,2.4 -1.1,0 -0.8,-3 -3.2,-2.5 -1.3,0.3 -1.2,2.7 -1,3.5 0.3,1.3 4,0.4 3.7,1.2 -0.6,2.7 -4.4,5.4 -7.7,7 z m -22.7,13.2 c -0.1,0.5 0.5,1.7 1.1,1.8 0.6,0 1,-1.3 0.8,-1.8 -0.2,-0.3 -1.8,-0.3 -1.9,0 z m 3.3,4.9 c -0.4,-0.4 -1.6,0.7 -0.6,1.5 0.5,0.5 2.5,1.1 3,0.2 0.8,-1.2 -0.7,-5.5 0,-6 0.5,-0.5 2.8,2.8 4,3 2.7,0.4 2,-4.6 5,-4.2 1.9,0.2 2.1,-2.2 1.8,-3.8 -0.2,-1.5 -2.6,-3.6 -3.7,-4.6 -1.4,-1.2 -2.1,1 -1.2,1.6 1.2,1 3.3,2.9 3.6,4.1 0.1,0.6 -1.4,1.8 -2,1.5 -1.4,-0.8 -2.6,-4 -3.8,-4.7 -0.4,-0.2 -1.4,0.3 -1,1.3 0.6,1.1 3,2.7 3.1,3.9 0.1,1 -1,3.2 -1.8,3.2 -0.9,0 -3,-2.7 -3.7,-4 -0.4,-0.5 -1.5,-0.5 -1.7,0.4 a 22,22 0 0 0 0.5,5.5 c 0.2,1.6 -0.9,1.7 -1.5,1.1 z m -4,-8.6 c -0.4,0.4 0.8,1.2 1,1 0.4,-0.4 2.1,-2.3 1.8,-3 -0.3,-0.6 -2.6,-2 -3,-1.3 -0.7,1.1 2.2,1.7 1.7,2 a 7,7 0 0 0 -1.5,1.3 z m 4.1,-8.4 c 0,0 0.8,2.5 1.4,1.4 0.4,-0.7 -1.4,-1.4 -1.4,-1.4 z m 1.2,4 c -0.2,0 -1,0.7 -0.5,1 0.8,0.4 2.9,0.8 2.4,-0.7 -0.3,-0.9 3.2,0 2.3,-2.4 a 3.7,3.7 0 0 0 -1.7,-1.7 c -0.4,0 -1.5,0.5 -0.8,0.9 0.5,0.2 2,1.1 1.5,1.7 -0.7,0.6 -1.1,-0.3 -1.9,-0.1 -0.4,0 -0.1,1.2 -0.4,1.5 0,0.2 -0.7,-0.4 -0.9,-0.3 z m 5.5,-9.5 a 3.5,3.5 0 0 0 -1.2,2 c 0,0.2 0.3,0.6 0.5,0.5 a 3.2,3.2 0 0 0 1.2,-1.9 c 0,-0.3 -0.2,-0.8 -0.5,-0.6 z m 2.8,-0.3 c -0.8,-1 1,-2.6 1.7,-0.5 0.5,1.3 5.5,7.9 6.5,10.1 0.8,1.5 0,2.1 -0.9,1 -2.5,-3.2 -4.6,-7.2 -7.3,-10.6 z m 5.2,0.1 c 0.9,-1 2.7,-3 2.2,-4 -0.4,-1 -1.5,-1 -1.7,-0.7 -1,1.3 0.8,1 0.5,1.4 -0.5,1 -1,1.6 -1.3,2.6 -0.1,0.3 0.1,0.9 0.3,0.7 z m 77.8,3.2 c -0.7,-0.5 0.6,-3 1.5,-2 2.3,2.7 3.4,11.6 4.1,18.3 0,0 -1,0.9 -1,0.7 0,-3.5 -1.5,-14.4 -4.6,-17 z m -53.1,-8.6 c -0.8,-1.8 1.1,-2.4 1.4,-1.2 1.3,5.8 4.5,10.2 7,14.1 0.7,1.2 0,2 -1.7,0.8 -1.2,-0.8 -2.5,-3.9 -3,-4 -1.2,-0.2 -3.8,5 -9.1,3.5 -1.4,-0.4 -1.3,-4.5 -1.4,-6.3 0,-0.9 1,-1 1,0 0,1.7 0,5.2 2.1,5.4 1.8,0 5.6,-2.4 6.4,-4.4 0.8,-2 -1.9,-5.9 -2.7,-8 z"
         id="path64" /><path
         d="m 344.6,138.4 c 0.4,-1.2 6.1,-10.8 6.9,-12.9 0.4,-1 2,1.8 0.4,3.3 -1.4,1.2 -5.5,8 -6.3,10.4 -0.4,1 -1.4,0.5 -1,-0.8 z"
         id="path65" /><path
         d="m 354.3,129.3 c 1,-4 3.6,0.6 1.3,2.8 -3.4,3.4 -4.5,9.9 -10,10.9 -1.4,0.3 -4,-0.7 -4.8,-1.3 -0.3,-0.2 0.2,-1.6 1.1,-0.9 1.3,1 4.1,1.3 5.6,0.1 a 25.4,25.4 0 0 0 6.8,-11.6 z m -57,12.7 c -0.3,0.3 -1,0.3 -1.1,0.7 -0.3,1.4 0,2.2 -0.3,3.6 -0.3,1.4 -1.3,1.4 -1.2,0.3 0,-1.4 1.3,-3.5 0.4,-3.6 -0.6,-0.1 -1,-0.9 -0.4,-1.3 1.1,-0.7 1.7,-0.6 2.4,-0.4 0.3,0.1 0.4,0.5 0.2,0.7 z"
         id="path66" /><path
         d="m 296.5,140 c -1.4,1.4 -2.8,1.9 -4.1,3.5 -0.6,0.6 -0.5,1.5 -0.9,2.4 -0.3,0.9 -1.4,1 -1.7,0.9 -0.5,-0.4 -0.4,-2 -1,-1.2 -0.6,0.9 -0.9,2 -1.7,2 -0.7,0 -2,-1.5 -1.3,-1.5 2.3,-0.3 2.2,-2 3,-2.2 1,-0.1 1,1.5 1.7,1.2 0.4,-0.2 0.7,-2.1 1.2,-2.6 1.5,-1.6 2.7,-2.4 4.3,-3.6 0.7,-0.6 1.3,0.5 0.5,1.2 z m 5.3,5 c -1.2,0.2 -1,1.7 -0.6,1.8 0.5,0.3 1.4,0.4 1.7,-1.3 0.2,-0.7 0.3,3.5 1.8,1.9 1,-1 3.1,0.2 4,-1 0.7,-0.9 1,-1.5 0.4,-2.7 -0.2,-0.3 -1,-0.2 -1,0.7 0,0.8 -0.5,1.7 -1.3,1.6 -0.4,-0.1 0.2,-1.9 -0.2,-2.4 a 0.5,0.5 0 0 0 -0.7,0 c -0.3,0.4 0.3,2.2 -0.6,2.4 -1.2,0.2 -0.6,-1.2 -1,-1.4 -1.7,-0.8 -1.8,0.2 -2.5,0.3 z m 9,-3 c 0.9,-0.2 0.6,-0.2 2,-1.3 0.5,-0.4 0.6,0.8 0.5,1.3 0,0.7 -1,0.2 -1.3,0.9 -0.4,0.9 -0.2,3 -0.4,3.8 0,0.4 -0.8,0.4 -0.8,0 -0.2,-1 0.1,-2 0,-3.3 0,-0.4 -0.5,-1.1 0,-1.3 z m -5,-2.5 c -0.2,0.9 -0.2,1.6 -0.2,2.3 0,0.5 1,0.2 1,0.1 0,-0.8 0.2,-2 0,-2.3 -0.2,-0.1 -0.7,-0.3 -0.8,-0.1 z"
         id="path67" /><path
         d="m 299.5,130.2 -1.4,5.6 -2,-3.8 v 3.9 l -4.4,-5.2 1.5,5.6 -4,-3.4 2.2,3.8 -7,-4.5 4.4,5.2 -5.6,-2.8 4,3.4 -9,-3.4 8.7,4.3 a 29,29 0 0 1 12.6,-2.6 c 4.9,0 9.3,1 12.5,2.6 l 8.8,-4.3 -9,3.4 4,-3.4 -5.5,2.8 4.3,-5.2 -7,4.5 2.2,-3.8 -4,3.3 1.5,-5.5 -4.3,5.2 V 132 l -2,3.8 z"
         id="path68" /></g></g><path
     fill="#ffffff"
     d="m 311.3,295 -0.3,2.6 h -0.4 l -0.1,-1.8 a 9.3,9.3 0 0 0 -0.5,-1.6 7.3,7.3 0 0 0 -0.5,-1.3 l -1,-1.4 0.8,-2.2 a 6.6,6.6 0 0 1 1.5,2.4 9.4,9.4 0 0 1 0.5,3.2 m 7,-4.2 c 0,0.7 -0.2,1.2 -0.5,1.5 -0.2,0.3 -0.6,0.6 -1.3,0.7 l 0.4,1.5 a 6.7,6.7 0 0 1 0,2 22.5,22.5 0 0 1 -0.1,1.3 h -0.4 a 8.2,8.2 0 0 0 -0.1,-1.3 5.5,5.5 0 0 0 -0.2,-1 l -0.4,-1 A 10.5,10.5 0 0 0 315,293 l -1,-1.7 0.6,-2 1,1 c 0.3,0.2 0.6,0.3 1,0.3 0.8,0 1.2,-0.4 1.2,-1.3 h 0.4 v 1.4 m 6.4,4.8 -0.5,2.1 c -0.4,0 -0.6,-0.3 -0.8,-0.7 l -0.4,-1.3 a 12.4,12.4 0 0 1 -0.1,-1.7 4,4 0 0 1 -1,0.2 2,2 0 0 1 -1.3,-0.4 1.3,1.3 0 0 1 -0.5,-1 c 0,-0.9 0.3,-1.7 0.7,-2.3 0.5,-0.7 1,-1 1.5,-1.1 0.5,0 0.8,0.1 1,0.4 a 2,2 0 0 1 0.3,0.9 v 2 c 0,0.9 0.1,1.5 0.3,1.9 0,0.3 0.3,0.6 0.8,1 m -2,-3.5 c 0,-0.6 -0.3,-0.8 -0.8,-0.8 a 1,1 0 0 0 -0.6,0.1 c -0.2,0.1 -0.2,0.2 -0.2,0.3 0,0.3 0.3,0.5 1,0.5 l 0.6,-0.1 m 8.7,3 -0.3,2.6 c -0.5,-0.4 -1,-1 -1.4,-2 a 25.4,25.4 0 0 1 -1.3,-4.1 52.8,52.8 0 0 1 -1.8,5.5 2.9,2.9 0 0 1 -0.8,0.7 v -2.5 c 0.6,-0.7 0.9,-1.1 1,-1.5 a 7.6,7.6 0 0 0 0.8,-1.7 l 0.5,-2.7 h 0.4 l 0.9,2.7 c 0.2,0.6 0.5,1.2 0.9,1.6 l 1,1.4"
     id="path69" /><path
     fill="#bf0000"
     d="m 350.8,319.4 c 0.4,0.4 0.6,0.8 0.7,1.2 l 0.4,1.6 -0.8,0.1 a 7.8,7.8 0 0 0 -1,-1.5 18.8,18.8 0 0 0 -1.1,-1.2 46,46 0 0 0 -1.7,-1.5 34.4,34.4 0 0 0 -2,-1.7 c -0.4,-0.2 -0.6,-0.4 -0.6,-0.5 a 1.9,1.9 0 0 1 -0.3,-0.8 11.2,11.2 0 0 1 -0.2,-1.6 l 2.7,2.2 a 44.3,44.3 0 0 1 2.5,2.2 l 1.4,1.5 m -9.5,-5.8 -0.2,2 H 338 l 0.3,-2 h 3 m 8.4,8.9 -7.6,2.3 -1.3,-2 6.5,-2 -0.7,-0.8 a 2.8,2.8 0 0 0 -0.9,-0.6 1.4,1.4 0 0 1 -0.4,1 2,2 0 0 1 -1,0.6 3.4,3.4 0 0 1 -1.8,0 2,2 0 0 1 -1.3,-0.7 4,4 0 0 1 -0.7,-2.2 c 0,-1 0.3,-1.6 0.9,-1.8 0.7,-0.2 1.8,0 3,0.7 a 8.1,8.1 0 0 1 3,2.4 l 2.3,3.1 m -5.8,-4 a 3.8,3.8 0 0 0 -0.8,-0.3 1.1,1.1 0 0 0 -0.6,0 0.7,0.7 0 0 0 -0.5,0.3 0.5,0.5 0 0 0 0,0.6 l 0.5,0.2 h 0.6 l 0.4,-0.3 0.4,-0.5 m -8,-1.6 -0.5,2 -3.2,-0.3 0.5,-2 3.1,0.3 m 7.5,7.7 -1.7,0.4 a 5.3,5.3 0 0 1 -1.7,0 3.6,3.6 0 0 1 -1.5,-0.4 c -0.3,0.5 -0.8,1 -1.5,1.2 a 7.4,7.4 0 0 1 -1.6,0.6 l -1.2,0.3 -1,-2 1.1,-0.3 a 9.1,9.1 0 0 0 1.3,-0.4 l 0.9,-0.5 -1,-0.5 h -0.7 a 0.4,0.4 0 0 0 -0.2,0 0.6,0.6 0 0 0 -0.2,0.3 h -0.5 c -0.5,-0.8 -0.6,-1.5 -0.3,-2 0.3,-0.5 0.9,-0.8 2,-1 a 6.8,6.8 0 0 1 2.6,-0.2 c 0.8,0.1 1.3,0.4 1.5,0.9 0.2,0.2 0.2,0.5 0.2,0.7 l -0.4,1.2 h 0.5 a 2,2 0 0 0 0.6,0 l 1.7,-0.3 1,2 m -8,1.8 -1.6,0.3 a 3,3 0 0 1 -2.2,-0.4 5.5,5.5 0 0 1 -1.7,-2.6 l -0.8,-2.2 a 2,2 0 0 0 -0.8,-1 4.6,4.6 0 0 0 -0.9,-0.5 l 0.6,-2.1 c 0.6,0.3 1,0.6 1.4,1 l 1,1.7 0.5,1.5 1.1,2.2 c 0.3,0.3 0.7,0.4 1,0.3 l 1.7,-0.2 0.7,2 m -7,-7.5 -1,1.9 -3,-0.7 1,-1.9 3,0.7 m 1.8,8.4 -7.5,0.7 -0.4,-2 6.2,-0.7 a 2.3,2.3 0 0 0 -0.6,-0.8 8.3,8.3 0 0 0 -1,-0.6 l 0.5,-2 c 0.7,0.4 1.2,0.9 1.6,1.3 0.3,0.5 0.6,1.2 0.8,2.1 l 0.4,2 m -6,1 a 17,17 0 0 1 -2.2,-0.2 10.5,10.5 0 0 1 -1.7,-0.5 5.6,5.6 0 0 1 -1.3,0.4 9.9,9.9 0 0 1 -1.7,0 h -2 a 2.5,2.5 0 0 1 -1.2,-0.3 c -0.3,-0.2 -0.5,-0.5 -0.8,-1 a 4.1,4.1 0 0 1 -1.5,1 l -1.7,0.1 h -1.7 l 0.2,-2.1 h 1.7 c 0.8,0 1.5,0 2.1,-0.4 a 2,2 0 0 0 1.3,-1.8 l 0.7,0.1 a 30.2,30.2 0 0 0 -0.1,1.3 c 0,0.3 0,0.5 0.3,0.7 0.3,0.2 0.6,0.3 1,0.3 h 1.5 c 1,0 1.6,0 2,-0.2 0.6,-0.2 0.9,-0.5 1,-1.1 l 0.1,-0.4 c 0,0 0.3,0 0.5,-0.2 l 0.5,-0.2 v 0.4 a 8.9,8.9 0 0 1 0,0.3 l -0.3,1.1 a 12.4,12.4 0 0 0 2,0.5 c 0.1,-0.2 0,-0.4 -0.1,-0.7 l -0.3,-0.6 a 0.5,0.5 0 0 1 0.1,-0.3 l 0.3,-0.2 1,-0.9 0.5,1 v 1 l -0.2,2.9 m -11.3,-8.7 -2,1.3 -1.3,-0.9 -1.4,1 -1.9,-1 1.8,-1.3 1.5,0.8 1.5,-1 1.8,1 m -3,8.2 -7.3,-1.2 0.8,-2 6.2,1 c 0,-0.4 0,-0.7 -0.2,-1 a 5.2,5.2 0 0 0 -0.5,-0.8 l 1.6,-1.7 c 0.4,0.6 0.6,1 0.7,1.6 0,0.5 -0.2,1.2 -0.5,2.1 l -0.8,2 m -6.1,-1 -1.6,-0.3 c -0.9,-0.2 -1.4,-0.6 -1.5,-1.2 -0.2,-0.6 0.1,-1.5 0.8,-2.8 l 1.2,-2 c 0.3,-0.5 0.4,-0.9 0.3,-1.2 a 2.2,2.2 0 0 0 -0.3,-0.7 l 2.2,-1.6 c 0.3,0.5 0.3,1 0.3,1.4 0,0.5 -0.3,1.1 -0.7,1.8 l -0.8,1.4 a 5.8,5.8 0 0 0 -0.9,2.2 c 0,0.4 0.2,0.6 0.5,0.7 l 1.6,0.4 -1.1,2 m -3.8,-8 -2.5,1.1 -1.8,-1.7 2.6,-1 1.7,1.7 m -1,6.6 a 6.8,6.8 0 0 1 -1.6,1.4 4.2,4.2 0 0 1 -1.7,0.6 l -2.4,-0.1 a 14.8,14.8 0 0 1 -2.8,-0.7 7.7,7.7 0 0 1 -3.4,-2 c -0.6,-0.8 -0.6,-1.5 0,-2.2 a 7,7 0 0 1 2,-1.6 c 0.8,-0.5 2,-1 3.8,-1.6 l 0.4,0.5 -2.8,1.2 c -0.5,0.3 -1,0.6 -1.3,1 -0.4,0.4 -0.3,1 0.2,1.6 a 10.5,10.5 0 0 0 6.3,2.2 c 1.2,0 2,-0.3 2.3,-0.7 0.3,-0.3 0.4,-0.6 0.5,-1 l 0.2,-1.6 2.5,-1.5 a 8,8 0 0 1 -0.1,1.5 4.4,4.4 0 0 1 -1,1.6 l -1.2,1.4"
     id="path70" /></g></svg>
