<?xml version="1.0" encoding="UTF-8" standalone="no"?>
<!-- Uploaded to: SVG Repo, www.svgrepo.com, Generator: SVG Repo Mixer Tools -->

<svg
   viewBox="0 0 24.057022 21.183354"
   fill="none"
   version="1.1"
	 id="complete"
   sodipodi:docname="ru.svg"
   inkscape:export-filename="../menu-icons/af.svg"
   inkscape:export-xdpi="96"
   inkscape:export-ydpi="96"
   xml:space="preserve"
   inkscape:version="1.3 (0e150ed6c4, 2023-07-21)"
   width="24.057022"
   height="21.183353"
   xmlns:inkscape="http://www.inkscape.org/namespaces/inkscape"
   xmlns:sodipodi="http://sodipodi.sourceforge.net/DTD/sodipodi-0.dtd"
   xmlns="http://www.w3.org/2000/svg"
   xmlns:svg="http://www.w3.org/2000/svg"><defs
   id="defs1"><clipPath
     id="ag-a"><path
       fill-opacity="0.7"
       d="M -79.7,0 H 603 V 512 H -79.7 Z"
       id="path1-7" /></clipPath></defs><sodipodi:namedview
   id="namedview1"
   pagecolor="#ffffff"
   bordercolor="#000000"
   borderopacity="0.25"
   inkscape:showpageshadow="2"
   inkscape:pageopacity="0.0"
   inkscape:pagecheckerboard="0"
   inkscape:deskcolor="#d1d1d1"
   inkscape:zoom="35.76243"
   inkscape:cx="6.6130852"
   inkscape:cy="10.30411"
   inkscape:window-width="1920"
   inkscape:window-height="935"
   inkscape:window-x="0"
   inkscape:window-y="32"
   inkscape:window-maximized="1"
   inkscape:current-layer="svg1" />&#10;	<style
   id="style1">&#10;	path {&#10;		animation: slideTo infinite .2s;&#10;		overflow: hidden;&#10;	}&#10;&#10;	@keyframes slideTo {&#10;		from {&#10;			visibility: visible;&#10;&#10;		}&#10;		to {&#10;			visibility: hidden;&#10;&#10;		}&#10;	}&#10;&#10;	 .white {&#10;		animation: slideFrom infinite 2s;&#10;	}&#10;	.blue {&#10;		animation: slideFrom infinite .2s;&#10;		animation-delay: .2s;&#10;	}&#10;&#10;	@keyframes slideFrom {&#10;		0% {&#10;			transform: translateY(100%);&#10;			visibility: hidden;&#10;		}&#10;		50% {&#10;			transform: translateY(-90%);&#10;			visibility: visible;&#10;		}&#10;		100% {&#10;			transform: translateY(-60%);&#10;			visibility: visible;&#10;		}&#10;	}&#10;	</style>&#10;&#10;	<path
   class="bars"
   d="M 0.80489999,9.3291405 H 12.062557 M 0.80489999,14.853797 H 12.062557 M 0.80489999,20.378454 H 12.062557"
   stroke="#000000"
   stroke-width="1.6098"
   stroke-linecap="round"
   stroke-linejoin="round"
   id="path1" />&#10;	&#10;	&#10;	<rect
   class="red"
   style="fill:#ff0000;stroke-width:0.03"
   id="rect6"
   width="0.01375999"
   height="0.097003661"
   x="2.9238179"
   y="16.894722"
   ry="0.0068799951" />&#10;<g
   fill-rule="evenodd"
   clip-path="url(#ag-a)"
   transform="matrix(0.01691306,0,0,0.01526098,13.858448,0)"
   id="g6"><path
     fill="#ffffff"
     d="M -79.7,0 H 603 V 512 H -79.7 Z"
     id="path2-5" /><path
     d="M -79.6,0 H 603 V 204.8 H -79.7 Z"
     id="path3-3" /><path
     fill="#0072c6"
     d="m 21.3,203.2 h 480 v 112 h -480 z"
     id="path4-5" /><path
     fill="#ce1126"
     d="M 603,0.1 V 512 H 261.6 L 603,0 Z m -682.7,0 V 512 H 261.6 L -79.7,0 Z"
     id="path5-6" /><path
     fill="#fcd116"
     d="M 440.4,203.3 364,184 l 64.9,-49 -79.7,11.4 41,-69.5 -70.7,41 12.8,-80.9 -47.9,63.8 -19.3,-74 -21.7,76.3 -47.8,-65 13.7,83.2 -70.8,-43.3 41,69.5 -77.4,-12.5 63.8,47.8 -79.9,20.5 h 354.3 z"
     id="path6-2" /></g></svg>
