<?xml version="1.0" encoding="UTF-8" standalone="no"?>
<!-- Uploaded to: SVG Repo, www.svgrepo.com, Generator: SVG Repo Mixer Tools -->

<svg
   viewBox="0 0 26.178255 22.599647"
   fill="none"
   version="1.1"
	 id="complete"
   sodipodi:docname="ru.svg"
   inkscape:export-filename="../menu-icons/ad.svg"
   inkscape:export-xdpi="96"
   inkscape:export-ydpi="96"
   xml:space="preserve"
   inkscape:version="1.3 (0e150ed6c4, 2023-07-21)"
   width="26.178255"
   height="22.599646"
   xmlns:inkscape="http://www.inkscape.org/namespaces/inkscape"
   xmlns:sodipodi="http://sodipodi.sourceforge.net/DTD/sodipodi-0.dtd"
   xmlns="http://www.w3.org/2000/svg"
   xmlns:svg="http://www.w3.org/2000/svg"><defs
   id="defs1" /><sodipodi:namedview
   id="namedview1"
   pagecolor="#ffffff"
   bordercolor="#000000"
   borderopacity="0.25"
   inkscape:showpageshadow="2"
   inkscape:pageopacity="0.0"
   inkscape:pagecheckerboard="0"
   inkscape:deskcolor="#d1d1d1"
   inkscape:zoom="35.76243"
   inkscape:cx="6.6130852"
   inkscape:cy="10.30411"
   inkscape:window-width="1920"
   inkscape:window-height="935"
   inkscape:window-x="0"
   inkscape:window-y="32"
   inkscape:window-maximized="1"
   inkscape:current-layer="svg1" />&#10;	<style
   id="style1">&#10;	path {&#10;		animation: slideTo infinite .2s;&#10;		overflow: hidden;&#10;	}&#10;&#10;	@keyframes slideTo {&#10;		from {&#10;			visibility: visible;&#10;&#10;		}&#10;		to {&#10;			visibility: hidden;&#10;&#10;		}&#10;	}&#10;&#10;	 .white {&#10;		animation: slideFrom infinite 2s;&#10;	}&#10;	.blue {&#10;		animation: slideFrom infinite .2s;&#10;		animation-delay: .2s;&#10;	}&#10;&#10;	@keyframes slideFrom {&#10;		0% {&#10;			transform: translateY(100%);&#10;			visibility: hidden;&#10;		}&#10;		50% {&#10;			transform: translateY(-90%);&#10;			visibility: visible;&#10;		}&#10;		100% {&#10;			transform: translateY(-60%);&#10;			visibility: visible;&#10;		}&#10;	}&#10;	</style>&#10;&#10;	<path
   class="bars"
   d="M 0.80489999,10.745433 H 12.062557 M 0.80489999,16.270089 H 12.062557 M 0.80489999,21.794746 H 12.062557"
   stroke="#000000"
   stroke-width="1.6098"
   stroke-linecap="round"
   stroke-linejoin="round"
   id="path1" />&#10;	&#10;	&#10;	<rect
   class="red"
   style="fill:#ff0000;stroke-width:0.03"
   id="rect6"
   width="0.01375999"
   height="0.097003661"
   x="2.9238179"
   y="18.311016"
   ry="0.0068799951" />&#10;<g
   id="g115"
   transform="matrix(0.02975848,0,0,0.02672304,10.938939,3.7440696e-8)"><path
     style="fill:#41479b"
     d="M 472.1,0 H 39.9 C 17.9,0 0,17.8 0,39.9 v 255.7 c 0,22 17.8,39.9 39.9,39.9 h 432.3 c 22,0 39.9,-17.8 39.9,-39.9 V 39.8 C 512,17.8 494.2,0 472.1,0 Z"
     id="path283" /><path
     style="fill:#f5f5f5"
     d="m 8.8,167.7 h 15.3 l 81.8,-53.6 v 53.6 H 150 v -53.6 l 81.8,53.6 h 15.3 c 4.9,0 8.8,-4 8.8,-8.8 v -7 l -70.2,-46 H 256 V 61.8 h -70.2 l 70.2,-46 v -7 C 256,3.9 252,0 247.2,0 H 231.9 L 150.1,53.6 V 0 H 106 V 53.6 L 27.3,2 C 18.1,5 10.5,11.3 5.6,19.5 L 70.2,61.8 H 0 v 44.1 H 70.2 L 0,151.9 v 7 c 0,4.8 4,8.8 8.8,8.8 z"
     id="path285" /><g
     id="g297"
     transform="translate(0,-88.3)">&#10;	<polygon
   style="fill:#ff4b55"
   points="141.2,88.3 114.8,88.3 114.8,158.9 0,158.9 0,185.4 114.8,185.4 114.8,256 141.2,256 141.2,185.4 256,185.4 256,158.9 141.2,158.9 "
   id="polygon287" />&#10;	<path
   style="fill:#ff4b55"
   d="M 8.7,103.2 80.8,150 H 97 L 15,96.8 c -2.2,1.9 -4.4,4.1 -6.3,6.4 z"
   id="path289" />&#10;	<path
   style="fill:#ff4b55"
   d="m 166.3,150.1 88.4,-57.4 c -1.5,-2.6 -4.2,-4.4 -7.5,-4.4 h -1.9 l -95.2,61.8 z"
   id="path291" />&#10;	<path
   style="fill:#ff4b55"
   d="M 89.5,194.2 0,251.5 c 1.5,2.7 5.5,4.5 8.8,4.5 h 1.7 l 95.2,-61.8 z"
   id="path293" />&#10;	<path
   style="fill:#ff4b55"
   d="M 255.9,247.9 173.2,194.2 H 157 l 93.9,60.9 c 2.8,-1.3 4.7,-4 5,-7.2 z"
   id="path295" />&#10;</g><path
     style="fill:#f5f5f5"
     d="m 328.6,104.4 c -1.2,15.8 -6.1,116 57.5,138.7 63.6,-22.7 58.7,-122.9 57.5,-138.7 -7.7,3 -35.6,12.2 -57.5,-3.4 -21.9,15.5 -49.8,6.4 -57.5,3.4 z"
     id="path299" /><g
     id="g307"
     transform="translate(0,-88.3)">&#10;	<path
   style="fill:#ffa028"
   d="m 417.4,212.9 c -3.5,-2.7 -9.9,2.3 -17.2,1.8 -6.7,-0.5 -15,-7.3 -25.7,-4.3 -3,-2.7 -1.5,-9.1 -1.5,-9.1 -7.5,4.8 -8,11.4 -7.5,15 -5.3,7 -5,17.8 -4,21 1.3,4.3 3.7,4.8 4.1,9.6 0.4,4.8 2.2,3.1 2.2,3.1 3.7,-2.1 4.3,-6 5.9,-12.5 6.1,0.8 10,-4.7 10,-4.7 -4,1.2 -6.5,-0.9 -7.9,-2.9 0.2,-0.6 0.4,-1.2 0.6,-1.9 4.5,-12.4 26.2,-9 28.2,-5.6 3.6,6.2 8.4,8.5 8.4,8.5 0,-6.5 -4.8,-12.1 -4.8,-12.1 7.3,-1.3 9.2,-5.9 9.2,-5.9 z m -52.1,26.6 c -0.7,0 -1.3,-0.6 -1.3,-1.3 0,-0.7 0.6,-1.3 1.3,-1.3 0.7,0 1.3,0.6 1.3,1.3 0,0.7 -0.5,1.3 -1.3,1.3 z"
   id="path301" />&#10;	<path
   style="fill:#ffa028"
   d="m 396.1,292.2 c 4.2,-1.3 3.7,-9.5 8.3,-15.2 4.2,-5.3 14.5,-8.2 18.2,-18.7 3.9,-0.9 8.4,3.9 8.4,3.9 0.3,-8.9 -4.9,-13.1 -8.1,-14.7 -2.8,-8.4 -11.8,-14.2 -15.1,-15.2 -4.2,-1.4 -6.1,0.4 -10.2,-2 -4.1,-2.4 -3.8,0 -3.8,0 -0.4,4.3 2.6,7 7,11.9 -4.1,4.6 -1.9,10.9 -1.9,10.9 1.2,-4 4.5,-4.8 6.8,-4.8 0.4,0.5 0.8,1 1.2,1.6 7.6,10.8 -7.4,26.6 -11.4,26.3 -7.2,-0.5 -11.8,2.1 -11.8,2.1 5.3,3.7 12.7,3 12.7,3 -3,6.7 -0.3,10.9 -0.3,10.9 z m 7.6,-57.9 c 0.4,-0.6 1.2,-0.7 1.8,-0.3 0.6,0.4 0.7,1.2 0.3,1.8 -0.4,0.6 -1.2,0.7 -1.8,0.3 -0.5,-0.4 -0.7,-1.2 -0.3,-1.8 z"
   id="path303" />&#10;	<path
   style="fill:#ffa028"
   d="m 339.2,234.8 c -0.6,4.4 7.1,7.4 10.3,13.9 3,6 1.3,16.6 9.3,24.4 -0.8,3.9 -7,5.9 -7,5.9 7.9,4 13.9,1.1 16.7,-1.1 8.8,1 17.8,-4.8 20.1,-7.3 3,-3.3 2.2,-5.7 6.1,-8.4 3.9,-2.8 1.6,-3.5 1.6,-3.5 -3.7,-2.2 -7.4,-0.6 -13.8,1.3 -2.4,-5.6 -9.1,-6.3 -9.1,-6.3 3.1,2.8 2.5,6.1 1.5,8.2 -0.7,0.1 -1.3,0.3 -2,0.4 -13,2.4 -21,-18 -19.1,-21.4 3.5,-6.3 3.1,-11.6 3.1,-11.6 -5.6,3.3 -8,10.3 -8,10.3 -4.8,-5.5 -9.7,-4.8 -9.7,-4.8 z m 49.3,31.3 c 0.4,0.6 0.2,1.4 -0.5,1.8 -0.6,0.4 -1.4,0.2 -1.8,-0.5 -0.4,-0.6 -0.2,-1.4 0.5,-1.8 0.7,-0.3 1.5,-0.1 1.8,0.5 z"
   id="path305" />&#10;</g><path
     style="fill:#cdce0c"
     d="m 386.1,246.4 -0.5,-0.2 C 314,221.3 325.5,103.2 325.7,102 l 0.2,-2.1 2,0.9 c 0.3,0.2 33.6,14.9 57.3,-2.9 l 0.9,-0.7 0.9,0.7 c 23.8,17.8 57,3.1 57.3,2.9 l 2,-0.9 0.2,2.1 c 0.1,1.2 11.7,119.3 -59.9,144.2 z m -57.5,-142 c -1.2,15.8 -6.1,116 57.5,138.7 63.6,-22.7 58.7,-122.9 57.5,-138.7 -7.7,3 -35.6,12.2 -57.5,-3.4 -21.9,15.5 -49.8,6.4 -57.5,3.4 z"
     id="path309" /><path
     style="fill:#82afff"
     d="m 346.2,207.5 c 8.7,15.8 21.4,29 39.9,35.6 18.5,-6.6 31.2,-19.8 39.9,-35.6 z"
     id="path311" /><g
     id="g313">&#10;</g><g
     id="g315">&#10;</g><g
     id="g317">&#10;</g><g
     id="g319">&#10;</g><g
     id="g321">&#10;</g><g
     id="g323">&#10;</g><g
     id="g325">&#10;</g><g
     id="g327">&#10;</g><g
     id="g329">&#10;</g><g
     id="g331">&#10;</g><g
     id="g333">&#10;</g><g
     id="g335">&#10;</g><g
     id="g337">&#10;</g><g
     id="g339">&#10;</g><g
     id="g341">&#10;</g></g></svg>
