<?xml version="1.0" encoding="UTF-8" standalone="no"?>
<!-- Uploaded to: SVG Repo, www.svgrepo.com, Generator: SVG Repo Mixer Tools -->

<svg
   viewBox="0 0 26.439787 23.713094"
   fill="none"
   version="1.1"
	 id="complete"
   sodipodi:docname="ru.svg"
   inkscape:export-filename="../menu-icons/au-cc.svg"
   inkscape:export-xdpi="96"
   inkscape:export-ydpi="96"
   xml:space="preserve"
   inkscape:version="1.3 (0e150ed6c4, 2023-07-21)"
   width="26.439787"
   height="23.713093"
   xmlns:inkscape="http://www.inkscape.org/namespaces/inkscape"
   xmlns:sodipodi="http://sodipodi.sourceforge.net/DTD/sodipodi-0.dtd"
   xmlns="http://www.w3.org/2000/svg"
   xmlns:svg="http://www.w3.org/2000/svg"><defs
   id="defs1" /><sodipodi:namedview
   id="namedview1"
   pagecolor="#ffffff"
   bordercolor="#000000"
   borderopacity="0.25"
   inkscape:showpageshadow="2"
   inkscape:pageopacity="0.0"
   inkscape:pagecheckerboard="0"
   inkscape:deskcolor="#d1d1d1"
   inkscape:zoom="35.76243"
   inkscape:cx="6.6130852"
   inkscape:cy="10.30411"
   inkscape:window-width="1920"
   inkscape:window-height="935"
   inkscape:window-x="0"
   inkscape:window-y="32"
   inkscape:window-maximized="1"
   inkscape:current-layer="svg1" />&#10;	<style
   id="style1">&#10;	path {&#10;		animation: slideTo infinite .2s;&#10;		overflow: hidden;&#10;	}&#10;&#10;	@keyframes slideTo {&#10;		from {&#10;			visibility: visible;&#10;&#10;		}&#10;		to {&#10;			visibility: hidden;&#10;&#10;		}&#10;	}&#10;&#10;	 .white {&#10;		animation: slideFrom infinite 2s;&#10;	}&#10;	.blue {&#10;		animation: slideFrom infinite .2s;&#10;		animation-delay: .2s;&#10;	}&#10;&#10;	@keyframes slideFrom {&#10;		0% {&#10;			transform: translateY(100%);&#10;			visibility: hidden;&#10;		}&#10;		50% {&#10;			transform: translateY(-90%);&#10;			visibility: visible;&#10;		}&#10;		100% {&#10;			transform: translateY(-60%);&#10;			visibility: visible;&#10;		}&#10;	}&#10;	</style>&#10;&#10;	<path
   class="bars"
   d="M 0.80489999,11.858879 H 12.062557 M 0.80489999,17.383535 H 12.062557 M 0.80489999,22.908192 H 12.062557"
   stroke="#000000"
   stroke-width="1.6098"
   stroke-linecap="round"
   stroke-linejoin="round"
   id="path1" />&#10;	&#10;	&#10;	<rect
   class="red"
   style="fill:#ff0000;stroke-width:0.03"
   id="rect6"
   width="0.01375999"
   height="0.097003661"
   x="2.9238179"
   y="19.424461"
   ry="0.0068799951" />&#10;<g
   id="g115"
   transform="matrix(0.02991834,0,0,0.02719504,11.121596,-2.6077878e-8)"><path
     style="fill:#73af00"
     d="m 38.345,335.448 h 435.31 c 21.177,0 38.345,-17.167 38.345,-38.345 V 247.172 H 0 v 49.931 c 0,21.178 17.167,38.345 38.345,38.345 z"
     id="path288" /><path
     style="fill:#ff4b55"
     d="M 512,38.345 C 512,17.168 494.833,0 473.655,0 H 38.345 C 17.167,0 0,17.167 0,38.345 v 208.828 h 512 z"
     id="path290" /><path
     style="fill:#f5f5f5"
     d="M 38.345,335.448 H 70.621 V 0 H 38.345 C 17.167,0 0,17.167 0,38.345 v 258.759 c 0,21.177 17.167,38.344 38.345,38.344 z"
     id="path292" /><g
     id="g378"
     transform="translate(0,-88.276)">&#10;	<rect
   x="58.681"
   y="319.72"
   style="fill:#ff4b55"
   width="3.108"
   height="8.7489996"
   id="rect294" />&#10;	<rect
   x="8.8389997"
   y="145.48"
   style="fill:#ff4b55"
   width="3.122"
   height="8.75"
   id="rect296" />&#10;	<path
   style="fill:#ff4b55"
   d="m 8.833,171.797 h 1.568 v 4.438 h 1.554 v 4.376 h 4.66 v -4.376 h 1.569 v -4.438 h 1.523 v -5.834 h -1.523 v -4.438 h -1.569 v -4.311 h -4.66 v 4.311 h -1.554 v 4.438 H 8.833 Z m 3.122,-4.375 h 1.539 v -2.916 h 1.6 v 2.916 h 1.521 v 2.916 h -1.521 v 2.98 h -1.6 v -2.98 h -1.539 z"
   id="path298" />&#10;	<rect
   x="8.8389997"
   y="183.53"
   style="fill:#ff4b55"
   width="3.122"
   height="8.8120003"
   id="rect300" />&#10;	<rect
   x="33.750999"
   y="145.48"
   style="fill:#ff4b55"
   width="3.1229999"
   height="8.75"
   id="rect302" />&#10;	<path
   style="fill:#ff4b55"
   d="m 29.09,157.214 v 4.311 h -1.554 v 4.438 h -1.569 v 5.834 h 1.569 v 4.438 h 1.554 v 4.376 h 4.66 v -4.376 h 3.123 v 4.376 h 4.676 v -4.376 h 1.585 v -4.438 h 1.523 v -5.834 h -1.523 v -4.438 h -1.585 v -4.311 h -4.676 v 4.311 H 33.75 v -4.311 z m 7.784,10.208 h 1.569 v -2.916 h 1.569 v 2.916 h 1.537 v 2.916 h -1.537 v 2.98 h -1.569 v -2.98 h -1.569 z m -3.123,2.917 h -1.537 v 2.98 h -1.586 v -2.98 h -1.537 v -2.916 h 1.537 v -2.916 h 1.586 v 2.916 h 1.537 z"
   id="path304" />&#10;	<rect
   x="8.8389997"
   y="286.06"
   style="fill:#ff4b55"
   width="3.122"
   height="5.8319998"
   id="rect306" />&#10;	<rect
   x="8.8389997"
   y="220.17"
   style="fill:#ff4b55"
   width="3.122"
   height="5.8319998"
   id="rect308" />&#10;	<rect
   x="33.750999"
   y="183.53"
   style="fill:#ff4b55"
   width="3.1229999"
   height="8.8120003"
   id="rect310" />&#10;	<rect
   x="8.8389997"
   y="319.72"
   style="fill:#ff4b55"
   width="3.122"
   height="8.7489996"
   id="rect312" />&#10;	<polygon
   style="fill:#ff4b55"
   points="8.833,256.063 8.833,260.438 11.955,260.438 11.955,256.063 11.955,256 11.955,251.626 8.833,251.626 8.833,256 "
   id="polygon314" />&#10;	<rect
   x="8.8389997"
   y="400.31"
   style="fill:#ff4b55"
   width="3.122"
   height="8.75"
   id="rect316" />&#10;	<rect
   x="58.681"
   y="400.31"
   style="fill:#ff4b55"
   width="3.108"
   height="8.75"
   id="rect318" />&#10;	<rect
   x="8.8389997"
   y="357.82999"
   style="fill:#ff4b55"
   width="3.122"
   height="8.75"
   id="rect320" />&#10;	<rect
   x="33.750999"
   y="400.31"
   style="fill:#ff4b55"
   width="3.1229999"
   height="8.75"
   id="rect322" />&#10;	<path
   style="fill:#ff4b55"
   d="m 53.961,157.151 v 4.374 h -1.537 v 4.438 h -1.569 v 5.834 h 1.569 v 4.374 h 1.537 v 4.376 h 4.693 v -4.376 h 1.554 v -4.374 h 1.537 v -5.834 h -1.537 v -4.438 h -1.554 v -4.374 z m 4.693,13.188 h -1.569 v 2.915 h -1.57 v -2.915 h -1.554 v -2.98 h 1.554 v -2.854 h 1.569 v 2.854 h 1.569 z"
   id="path324" />&#10;	<rect
   x="58.681"
   y="103"
   style="fill:#ff4b55"
   width="3.108"
   height="8.75"
   id="rect326" />&#10;	<rect
   x="8.8389997"
   y="103"
   style="fill:#ff4b55"
   width="3.122"
   height="8.75"
   id="rect328" />&#10;	<rect
   x="58.681"
   y="183.53"
   style="fill:#ff4b55"
   width="3.108"
   height="8.8120003"
   id="rect330" />&#10;	<rect
   x="58.681"
   y="145.48"
   style="fill:#ff4b55"
   width="3.108"
   height="8.75"
   id="rect332" />&#10;	<rect
   x="33.750999"
   y="103"
   style="fill:#ff4b55"
   width="3.1229999"
   height="8.75"
   id="rect334" />&#10;	<rect
   x="21.308001"
   y="378.32001"
   style="fill:#ff4b55"
   width="3.0910001"
   height="7.2919998"
   id="rect336" />&#10;	<polygon
   style="fill:#ff4b55"
   points="25.967,256.063 25.967,260.438 29.09,260.438 29.09,256.063 29.09,256 29.09,251.626 25.967,251.626 25.967,256 "
   id="polygon338" />&#10;	<path
   style="fill:#ff4b55"
   d="m 46.241,97.103 v 7.357 h -3.107 v 7.292 h -3.122 v 7.354 h -3.139 v 7.292 H 33.75 v -7.292 h -3.123 v -7.354 H 27.536 V 104.46 H 24.43 v -7.357 h -3.123 v 7.357 h -3.123 v 7.292 h -3.091 v 7.354 h -3.139 v 7.292 H 8.833 v 7.357 h 3.122 v 7.292 h 3.139 v 7.354 h 3.091 v 7.354 h 3.123 v 7.292 h 3.091 v -7.292 h 3.139 v -7.354 h 3.091 v -7.354 h 3.123 v -7.292 h 3.123 v 7.292 h 3.139 v 7.354 h 3.091 v 7.354 h 3.138 v 7.292 h 3.108 v -7.292 h 3.106 v -7.354 h 3.122 v -7.354 h 3.106 v -7.292 h 3.108 v -7.357 h -3.092 v -7.292 h -3.123 v -7.354 H 52.456 V 104.46 H 49.35 v -7.357 z m -15.614,36.65 h -3.091 v 7.292 h -3.139 v 7.354 h -3.09 v -7.354 h -3.123 v -7.292 h -3.091 v -7.357 h 3.091 v -7.292 h 3.123 v -7.354 h 3.091 v 7.354 h 3.139 v 7.292 h 3.091 z m 21.83,-14.647 v 7.292 h 3.122 v 7.357 h -3.122 v 7.292 h -3.106 v 7.354 h -3.108 v -7.354 h -3.107 v -7.292 h -3.122 v -7.357 h 3.122 v -7.292 h 3.107 v -7.354 h 3.108 v 7.354 z"
   id="path340" />&#10;	<rect
   x="33.750999"
   y="240.64999"
   style="fill:#ff4b55"
   width="3.1229999"
   height="7.2919998"
   id="rect342" />&#10;	<rect
   x="33.750999"
   y="264.10999"
   style="fill:#ff4b55"
   width="3.1229999"
   height="7.2919998"
   id="rect344" />&#10;	<polygon
   style="fill:#ff4b55"
   points="44.657,256 44.657,251.626 41.55,251.626 41.55,256 41.55,256.063 41.55,260.438 44.657,260.438 44.657,256.063 "
   id="polygon346" />&#10;	<path
   style="fill:#ff4b55"
   d="m 43.135,400.312 v 7.292 h 3.107 v 7.293 h 3.108 v -7.293 h 3.106 v -7.292 h 3.122 v -7.354 h 3.123 v -7.354 h 3.092 v -7.292 h -3.108 v -7.357 h -3.106 v -7.292 h -3.122 v -7.354 h -3.106 v -7.292 h -3.108 v 7.292 h -3.138 v 7.354 h -3.091 v 7.292 h -3.139 v 7.357 h -3.123 v -7.357 h -3.123 v -7.292 h -3.091 v -7.354 h -3.139 v -7.292 h -3.091 v 7.292 h -3.123 v 7.354 h -3.091 v 7.292 h -3.139 v 7.357 H 8.833 v 7.292 h 3.122 v 7.354 h 3.139 v 7.354 h 3.091 v 7.292 h 3.123 v 7.293 h 3.123 v -7.293 h 3.107 v -7.292 h 3.091 v -7.354 h 3.123 v -7.354 h 3.123 v 7.354 h 3.139 v 7.354 z M 30.627,385.603 h -3.091 v 7.354 h -3.139 v 7.354 h -3.09 v -7.354 h -3.123 v -7.354 h -3.091 v -7.292 h 3.091 v -7.357 h 3.123 v -7.292 h 3.091 v 7.292 h 3.139 v 7.357 h 3.091 z m 9.386,-7.291 h 3.122 v -7.357 h 3.107 v -7.292 h 3.108 v 7.292 h 3.106 v 7.357 h 3.122 v 7.292 h -3.122 v 7.354 H 49.35 v 7.354 h -3.108 v -7.354 h -3.107 v -7.354 h -3.122 c 0,-10e-4 0,-7.292 0,-7.292 z"
   id="path348" />&#10;	<polygon
   style="fill:#ff4b55"
   points="32.214,256.063 32.214,258.916 30.627,258.916 30.627,261.135 29.09,261.135 29.09,265.511 32.214,265.511 32.214,262.595 33.751,262.595 33.751,260.438 36.874,260.438 36.874,262.595 38.443,262.595 38.443,265.511 41.55,265.511 41.55,261.135 40.013,261.135 40.013,258.916 38.443,258.916 38.443,256.063 38.443,256 38.443,253.084 40.013,253.084 40.013,250.865 41.55,250.865 41.55,246.489 38.443,246.489 38.443,249.407 36.874,249.407 36.874,251.626 33.751,251.626 33.751,249.407 32.214,249.407 32.214,246.489 29.09,246.489 29.09,250.865 30.627,250.865 30.627,253.084 32.214,253.084 32.214,256 "
   id="polygon350" />&#10;	<rect
   x="46.240002"
   y="126.4"
   style="fill:#ff4b55"
   width="3.108"
   height="7.3569999"
   id="rect352" />&#10;	<rect
   x="46.240002"
   y="378.32001"
   style="fill:#ff4b55"
   width="3.108"
   height="7.2919998"
   id="rect354" />&#10;	<path
   style="fill:#ff4b55"
   d="m 16.615,354.85 v -4.374 h 1.569 v -4.374 h 1.523 v -5.897 h -1.523 v -4.374 h -1.569 v -4.376 h -4.66 v 4.376 h -1.554 v 4.374 H 8.833 v 5.897 h 1.568 v 4.374 h 1.554 v 4.374 z m -4.66,-13.189 h 1.569 v -2.915 h 1.569 v 2.915 h 1.521 v 2.98 h -1.521 v 2.916 h -1.569 v -2.916 h -1.569 z"
   id="path356" />&#10;	<rect
   x="21.308001"
   y="126.4"
   style="fill:#ff4b55"
   width="3.0910001"
   height="7.3569999"
   id="rect358" />&#10;	<rect
   x="58.681"
   y="357.82999"
   style="fill:#ff4b55"
   width="3.108"
   height="8.75"
   id="rect360" />&#10;	<path
   style="fill:#ff4b55"
   d="m 41.55,354.85 v -4.374 h 1.585 v -4.374 h 1.523 v -5.897 h -1.523 v -4.374 H 41.55 v -4.376 h -4.676 v 4.376 h -3.123 v -4.376 h -4.66 v 4.376 h -1.554 v 4.374 h -1.569 v 5.897 h 1.569 v 4.374 h 1.554 v 4.374 h 4.66 v -4.374 h 3.123 v 4.374 z m -7.799,-10.209 h -1.537 v 2.916 h -1.586 v -2.916 h -1.537 v -2.98 h 1.537 v -2.915 h 1.586 v 2.915 h 1.537 z m 3.123,-2.98 h 1.569 v -2.915 h 1.569 v 2.915 h 1.537 v 2.98 h -1.537 v 2.916 h -1.569 v -2.916 h -1.569 z"
   id="path362" />&#10;	<rect
   x="33.750999"
   y="357.82999"
   style="fill:#ff4b55"
   width="3.1229999"
   height="8.75"
   id="rect364" />&#10;	<rect
   x="33.750999"
   y="319.72"
   style="fill:#ff4b55"
   width="3.1229999"
   height="8.7489996"
   id="rect366" />&#10;	<rect
   x="58.681"
   y="286.06"
   style="fill:#ff4b55"
   width="3.108"
   height="5.8319998"
   id="rect368" />&#10;	<path
   style="fill:#ff4b55"
   d="m 58.654,354.85 v -4.374 h 1.554 v -4.374 h 1.537 v -5.834 h -1.537 v -4.438 h -1.554 v -4.313 h -4.693 v 4.313 h -1.537 v 4.438 h -1.569 v 5.834 h 1.569 v 4.374 h 1.537 v 4.374 z m -4.693,-13.124 h 1.554 v -2.916 h 1.569 v 2.916 h 1.569 v 2.915 h -1.569 v 2.98 h -1.569 v -2.98 h -1.554 z"
   id="path370" />&#10;	<polygon
   style="fill:#ff4b55"
   points="61.793,256 61.793,251.626 58.685,251.626 58.685,256 58.685,256.063 58.685,260.438 61.793,260.438 61.793,256.063 "
   id="polygon372" />&#10;	<rect
   x="58.681"
   y="220.17"
   style="fill:#ff4b55"
   width="3.108"
   height="5.8319998"
   id="rect374" />&#10;	<path
   style="fill:#ff4b55"
   d="m 61.793,204.008 h -3.108 v -7.292 h -3.106 v -7.357 h -3.122 v -7.292 h -3.106 v -7.354 h -3.108 v 7.354 h -3.138 v 7.292 h -3.091 v 7.357 h -3.139 v 5.832 1.459 h -3.123 v -7.292 h -3.123 v -7.357 h -3.091 v -7.292 h -3.139 v -7.354 h -3.091 v 7.354 h -3.123 v 7.292 h -3.123 v 7.357 h -3.107 v 5.832 1.459 H 8.833 v 7.354 h 3.122 v 7.354 h 3.107 v 7.292 h 3.123 v 7.293 h 3.123 v -7.293 h 3.091 v -7.292 h 3.139 v -7.354 h -3.139 v -8.814 h 3.139 v 1.459 4.438 h 3.091 v 11.731 h 1.586 v 7.228 l -4.676,0.063 v 5.834 H 24.4 v 4.374 h -3.091 v 7.354 h -3.123 v -7.354 h -3.123 v -4.374 h -3.107 v -4.376 H 8.833 v 13.188 h 3.122 v 5.897 h 3.107 v 5.073 h 3.123 v 2.919 0.063 2.854 h -3.123 v 5.199 h -3.107 v 5.834 H 8.833 v 13.188 h 3.122 v -4.439 h 3.107 v -4.374 h 3.123 v -7.292 h 3.123 v 7.292 h 3.091 v 4.374 h 3.139 v 5.897 l 4.676,0.063 v 7.228 h -1.586 v 11.731 h -3.091 v 4.374 1.523 h -3.139 v -8.877 h 3.139 v -7.292 h -3.139 v -7.292 h -3.091 v -7.357 h -3.123 v 7.357 h -3.123 v 7.292 h -3.107 v 7.292 H 8.833 v 7.354 h 3.122 v 1.523 5.769 h 3.139 v 7.357 h 3.091 v 7.354 h 3.123 v 7.292 h 3.091 v -7.292 h 3.139 v -7.354 h 3.091 v -7.357 h 3.123 v -7.292 h 3.123 v 1.523 5.769 h 3.139 v 7.357 h 3.122 v 7.354 h 3.107 v 7.292 h 3.108 v -7.292 h 3.106 v -7.354 h 3.122 v -7.357 h 3.106 v -7.292 h 3.108 v -7.354 h -3.108 v -7.292 h -3.106 v -7.292 h -3.122 v -7.357 h -3.106 v 7.357 h -3.108 v 7.292 h -3.138 v 7.292 h 3.138 v 7.354 1.523 h -3.138 v -1.523 -4.374 h -3.091 v -11.731 h -0.445 -1.124 v -7.292 h 1.124 0.841 1.141 1.585 v -5.897 h 3.107 v -4.374 h 3.108 v -7.292 h 3.106 v 7.292 h 3.122 v 4.374 h 3.123 v 4.439 h 3.092 v -13.188 h -3.092 v -5.834 h -3.123 v -5.199 H 52.457 V 256.062 256 253.084 h 3.122 v -5.073 h 3.123 v -5.897 h 3.092 v -13.188 h -3.092 v 4.376 h -3.123 v 4.374 h -3.122 v 7.354 h -3.106 v -7.354 h -3.108 v -4.374 h -3.107 v -5.834 H 41.55 40.409 39.568 38.444 v -7.292 h 1.124 0.445 v -11.731 h 3.091 v -4.438 -1.459 h 3.138 v 1.459 7.354 h -3.138 v 7.354 h 3.138 v 7.292 h 3.108 v 7.293 h 3.106 v -7.293 h 3.122 v -7.292 h 3.106 v -7.354 h 3.108 z m -18.658,38.105 v 2.916 2.98 h 3.107 v 5.073 h 3.108 v 2.918 2.916 h -3.108 v 5.199 h -3.107 v 2.916 2.916 h -4.691 v 6.912 h -1.569 v 3.297 h -1.553 -1.57 v -3.297 h -1.537 v -6.912 h -4.676 v -5.834 H 24.4 v -5.199 h -3.092 v -2.791 -0.19 -2.854 h 3.091 v -5.073 h 3.139 v -5.897 h 4.676 v -6.91 h 1.537 v -3.362 h 1.57 1.553 v 3.297 h 1.569 v 6.975 h 4.692 z"
   id="path376" />&#10;</g><g
     id="g380">&#10;</g><g
     id="g382">&#10;</g><g
     id="g384">&#10;</g><g
     id="g386">&#10;</g><g
     id="g388">&#10;</g><g
     id="g390">&#10;</g><g
     id="g392">&#10;</g><g
     id="g394">&#10;</g><g
     id="g396">&#10;</g><g
     id="g398">&#10;</g><g
     id="g400">&#10;</g><g
     id="g402">&#10;</g><g
     id="g404">&#10;</g><g
     id="g406">&#10;</g><g
     id="g408">&#10;</g></g></svg>
