<?xml version="1.0" encoding="UTF-8" standalone="no"?>
<!-- Uploaded to: SVG Repo, www.svgrepo.com, Generator: SVG Repo Mixer Tools -->

<svg
   viewBox="0 0 23.340809 22.037761"
   fill="none"
   version="1.1"
	 id="complete"
   sodipodi:docname="ru.svg"
   inkscape:export-filename="../menu-icons/us.svg"
   inkscape:export-xdpi="96"
   inkscape:export-ydpi="96"
   xml:space="preserve"
   inkscape:version="1.3 (0e150ed6c4, 2023-07-21)"
   width="23.340809"
   height="22.03776"
   xmlns:inkscape="http://www.inkscape.org/namespaces/inkscape"
   xmlns:sodipodi="http://sodipodi.sourceforge.net/DTD/sodipodi-0.dtd"
   xmlns="http://www.w3.org/2000/svg"
   xmlns:svg="http://www.w3.org/2000/svg"><defs
   id="defs1" /><sodipodi:namedview
   id="namedview1"
   pagecolor="#ffffff"
   bordercolor="#000000"
   borderopacity="0.25"
   inkscape:showpageshadow="2"
   inkscape:pageopacity="0.0"
   inkscape:pagecheckerboard="0"
   inkscape:deskcolor="#d1d1d1"
   inkscape:zoom="35.76243"
   inkscape:cx="6.6130852"
   inkscape:cy="10.30411"
   inkscape:window-width="1920"
   inkscape:window-height="935"
   inkscape:window-x="0"
   inkscape:window-y="32"
   inkscape:window-maximized="1"
   inkscape:current-layer="svg1" />&#10;	<style
   id="style1">&#10;	path {&#10;		animation: slideTo infinite .2s;&#10;		overflow: hidden;&#10;	}&#10;&#10;	@keyframes slideTo {&#10;		from {&#10;			visibility: visible;&#10;&#10;		}&#10;		to {&#10;			visibility: hidden;&#10;&#10;		}&#10;	}&#10;&#10;	 .white {&#10;		animation: slideFrom infinite 2s;&#10;	}&#10;	.blue {&#10;		animation: slideFrom infinite .2s;&#10;		animation-delay: .2s;&#10;	}&#10;&#10;	@keyframes slideFrom {&#10;		0% {&#10;			transform: translateY(100%);&#10;			visibility: hidden;&#10;		}&#10;		50% {&#10;			transform: translateY(-90%);&#10;			visibility: visible;&#10;		}&#10;		100% {&#10;			transform: translateY(-60%);&#10;			visibility: visible;&#10;		}&#10;	}&#10;	</style>&#10;&#10;	<path
   class="bars"
   d="M 0.80489999,10.183547 H 12.062557 M 0.80489999,15.708203 H 12.062557 M 0.80489999,21.23286 H 12.062557"
   stroke="#000000"
   stroke-width="1.6098"
   stroke-linecap="round"
   stroke-linejoin="round"
   id="path1" />&#10;	&#10;	&#10;	<rect
   class="red"
   style="fill:#ff0000;stroke-width:0.03"
   id="rect6"
   width="0.01375999"
   height="0.097003661"
   x="2.9238179"
   y="17.74913"
   ry="0.0068799951" />&#10;<g
   id="g117"
   transform="matrix(0.0238893,0,0,0.0214357,11.109486,9.2491708e-8)"><path
     style="fill:#73af00"
     d="M 38.345,335.448 H 256 V 0 H 38.345 C 17.167,0 0,17.167 0,38.345 v 258.759 c 0,21.177 17.167,38.344 38.345,38.344 z"
     id="path10" /><path
     style="fill:#f5f5f5"
     d="m 473.655,335.448 c 21.177,0 38.345,-17.167 38.345,-38.345 V 38.345 C 512,17.168 494.833,0 473.655,0 H 256 v 335.448 z"
     id="path12" /><g
     id="g18"
     transform="translate(0,-88.276)">&#10;	<path
   style="fill:#ff4b55"
   d="m 298.609,223.906 -15.305,20.021 -23.897,-7.999 c -1.336,-0.447 -2.473,1.064 -1.673,2.223 l 14.312,20.743 -14.993,20.256 c -0.839,1.132 0.247,2.68 1.598,2.278 l 24.15,-7.202 14.632,20.519 c 0.818,1.148 2.626,0.593 2.66,-0.815 l 0.613,-25.194 24.035,-7.575 c 1.344,-0.424 1.375,-2.314 0.046,-2.782 l -23.77,-8.369 0.223,-25.201 c 0.012,-1.408 -1.776,-2.023 -2.631,-0.903 z"
   id="path14" />&#10;	<path
   style="fill:#ff4b55"
   d="m 271.866,316.63 c -33.459,0 -60.6,-27.142 -60.6,-60.631 0,-33.428 27.142,-60.63 60.6,-60.63 12.448,0 23.928,3.829 33.495,10.308 1.465,0.992 3.137,-0.932 1.91,-2.208 -14.298,-14.866 -34.535,-23.934 -56.971,-23.168 -38.548,1.315 -70.46,32.222 -72.922,70.713 -2.822,44.089 32.089,80.728 75.554,80.728 21.41,0 40.652,-8.951 54.393,-23.262 1.214,-1.265 -0.462,-3.16 -1.912,-2.177 -9.577,6.494 -21.076,10.327 -33.547,10.327 z"
   id="path16" />&#10;</g><g
     id="g20">&#10;</g><g
     id="g22">&#10;</g><g
     id="g24">&#10;</g><g
     id="g26">&#10;</g><g
     id="g28">&#10;</g><g
     id="g30">&#10;</g><g
     id="g32">&#10;</g><g
     id="g34">&#10;</g><g
     id="g36">&#10;</g><g
     id="g38">&#10;</g><g
     id="g40">&#10;</g><g
     id="g42">&#10;</g><g
     id="g44">&#10;</g><g
     id="g46">&#10;</g><g
     id="g48">&#10;</g></g></svg>
