<?xml version="1.0" encoding="UTF-8" standalone="no"?>
<!-- Uploaded to: SVG Repo, www.svgrepo.com, Generator: SVG Repo Mixer Tools -->

<svg
   viewBox="0 0 22.057995 19.694686"
   fill="none"
   version="1.1"
	 id="complete"
   sodipodi:docname="ru.svg"
   inkscape:export-filename="../menu-icons/by.svg"
   inkscape:export-xdpi="96"
   inkscape:export-ydpi="96"
   xml:space="preserve"
   inkscape:version="1.3 (0e150ed6c4, 2023-07-21)"
   width="22.057995"
   height="19.694685"
   xmlns:inkscape="http://www.inkscape.org/namespaces/inkscape"
   xmlns:sodipodi="http://sodipodi.sourceforge.net/DTD/sodipodi-0.dtd"
   xmlns="http://www.w3.org/2000/svg"
   xmlns:svg="http://www.w3.org/2000/svg"><defs
   id="defs1" /><sodipodi:namedview
   id="namedview1"
   pagecolor="#ffffff"
   bordercolor="#000000"
   borderopacity="0.25"
   inkscape:showpageshadow="2"
   inkscape:pageopacity="0.0"
   inkscape:pagecheckerboard="0"
   inkscape:deskcolor="#d1d1d1"
   inkscape:zoom="35.76243"
   inkscape:cx="6.6130852"
   inkscape:cy="10.30411"
   inkscape:window-width="1920"
   inkscape:window-height="935"
   inkscape:window-x="0"
   inkscape:window-y="32"
   inkscape:window-maximized="1"
   inkscape:current-layer="svg1" />&#10;	<style
   id="style1">&#10;	path {&#10;		animation: slideTo infinite .2s;&#10;		overflow: hidden;&#10;	}&#10;&#10;	@keyframes slideTo {&#10;		from {&#10;			visibility: visible;&#10;&#10;		}&#10;		to {&#10;			visibility: hidden;&#10;&#10;		}&#10;	}&#10;&#10;	 .white {&#10;		animation: slideFrom infinite 2s;&#10;	}&#10;	.blue {&#10;		animation: slideFrom infinite .2s;&#10;		animation-delay: .2s;&#10;	}&#10;&#10;	@keyframes slideFrom {&#10;		0% {&#10;			transform: translateY(100%);&#10;			visibility: hidden;&#10;		}&#10;		50% {&#10;			transform: translateY(-90%);&#10;			visibility: visible;&#10;		}&#10;		100% {&#10;			transform: translateY(-60%);&#10;			visibility: visible;&#10;		}&#10;	}&#10;	</style>&#10;&#10;	<path
   class="bars"
   d="M 0.80489999,7.8404714 H 12.062557 M 0.80489999,13.365127 H 12.062557 M 0.80489999,18.889784 H 12.062557"
   stroke="#000000"
   stroke-width="1.6098"
   stroke-linecap="round"
   stroke-linejoin="round"
   id="path1" />&#10;	&#10;	&#10;	<rect
   class="red"
   style="fill:#ff0000;stroke-width:0.03"
   id="rect6"
   width="0.01375999"
   height="0.097003661"
   x="2.9238179"
   y="15.406054"
   ry="0.0068799951" />&#10;<g
   id="g116"
   transform="matrix(0.01902507,0,0,0.0201004,12.317158,2.1528034e-7)"><path
     style="fill:#41479b"
     d="M 473.655,0.001 H 38.345 C 17.167,0.001 0,17.168 0,38.346 v 258.759 c 0,21.177 17.167,38.345 38.345,38.345 h 435.31 C 494.832,335.45 512,318.283 512,297.105 V 38.346 C 512,17.168 494.833,0.001 473.655,0.001 Z"
     id="path2467" /><path
     style="fill:#f5f5f5"
     d="M 511.469,32.007 C 508.447,13.848 492.672,0 473.655,0 h -9.977 L 300.138,107.147 V 0.001 H 211.862 V 107.148 L 48.322,0.001 H 38.345 C 19.328,0.001 3.553,13.848 0.531,32.008 l 139.778,91.58 H 0 v 88.276 H 140.309 L 0.531,303.442 c 3.022,18.159 18.797,32.007 37.814,32.007 h 9.977 l 163.54,-107.147 v 107.147 h 88.276 V 228.302 l 163.54,107.147 h 9.977 c 19.017,0 34.792,-13.847 37.814,-32.007 L 371.691,211.862 H 512 V 123.586 H 371.691 Z"
     id="path2469" /><g
     id="g2481"
     transform="translate(0,-88.275)">&#10;	<polygon
   style="fill:#ff4b55"
   points="229.517,229.517 0,229.517 0,282.483 229.517,282.483 229.517,423.724 282.483,423.724 282.483,282.483 512,282.483 512,229.517 282.483,229.517 282.483,88.276 229.517,88.276 "
   id="polygon2471" />&#10;	<path
   style="fill:#ff4b55"
   d="M 24.793,421.252 211.376,300.138 H 178.948 L 9.224,410.31 c 4.153,4.847 9.49,8.645 15.569,10.942 z"
   id="path2473" />&#10;	<path
   style="fill:#ff4b55"
   d="M 346.388,300.138 H 313.96 l 180.716,117.305 c 5.057,-3.321 9.277,-7.807 12.287,-13.075 z"
   id="path2475" />&#10;	<path
   style="fill:#ff4b55"
   d="m 4.049,109.475 157.73,102.387 h 32.428 L 15.475,95.842 c -4.799,3.572 -8.726,8.242 -11.426,13.633 z"
   id="path2477" />&#10;	<path
   style="fill:#ff4b55"
   d="M 332.566,211.862 502.601,101.487 c -4.199,-4.831 -9.578,-8.607 -15.699,-10.86 L 300.138,211.862 Z"
   id="path2479" />&#10;</g><g
     id="g2483"
     transform="translate(0,-88.275)">&#10;</g><g
     id="g2485"
     transform="translate(0,-88.275)">&#10;</g><g
     id="g2487"
     transform="translate(0,-88.275)">&#10;</g><g
     id="g2489"
     transform="translate(0,-88.275)">&#10;</g><g
     id="g2491"
     transform="translate(0,-88.275)">&#10;</g><g
     id="g2493"
     transform="translate(0,-88.275)">&#10;</g><g
     id="g2495"
     transform="translate(0,-88.275)">&#10;</g><g
     id="g2497"
     transform="translate(0,-88.275)">&#10;</g><g
     id="g2499"
     transform="translate(0,-88.275)">&#10;</g><g
     id="g2501"
     transform="translate(0,-88.275)">&#10;</g><g
     id="g2503"
     transform="translate(0,-88.275)">&#10;</g><g
     id="g2505"
     transform="translate(0,-88.275)">&#10;</g><g
     id="g2507"
     transform="translate(0,-88.275)">&#10;</g><g
     id="g2509"
     transform="translate(0,-88.275)">&#10;</g><g
     id="g2511"
     transform="translate(0,-88.275)">&#10;</g></g></svg>
