<?xml version="1.0" encoding="UTF-8" standalone="no"?>
<!-- Uploaded to: SVG Repo, www.svgrepo.com, Generator: SVG Repo Mixer Tools -->

<svg
   viewBox="0 0 22.20939 19.24755"
   fill="none"
   version="1.1"
	 id="complete"
   sodipodi:docname="ru.svg"
   inkscape:export-filename="../menu-icons/uz.svg"
   inkscape:export-xdpi="96"
   inkscape:export-ydpi="96"
   xml:space="preserve"
   inkscape:version="1.3 (0e150ed6c4, 2023-07-21)"
   width="22.209391"
   height="19.247549"
   xmlns:inkscape="http://www.inkscape.org/namespaces/inkscape"
   xmlns:sodipodi="http://sodipodi.sourceforge.net/DTD/sodipodi-0.dtd"
   xmlns="http://www.w3.org/2000/svg"
   xmlns:svg="http://www.w3.org/2000/svg"><defs
   id="defs1" /><sodipodi:namedview
   id="namedview1"
   pagecolor="#ffffff"
   bordercolor="#000000"
   borderopacity="0.25"
   inkscape:showpageshadow="2"
   inkscape:pageopacity="0.0"
   inkscape:pagecheckerboard="0"
   inkscape:deskcolor="#d1d1d1"
   inkscape:zoom="35.76243"
   inkscape:cx="6.6130852"
   inkscape:cy="10.30411"
   inkscape:window-width="1920"
   inkscape:window-height="935"
   inkscape:window-x="0"
   inkscape:window-y="32"
   inkscape:window-maximized="1"
   inkscape:current-layer="svg1" />&#10;	<style
   id="style1">&#10;	path {&#10;		animation: slideTo infinite .2s;&#10;		overflow: hidden;&#10;	}&#10;&#10;	@keyframes slideTo {&#10;		from {&#10;			visibility: visible;&#10;&#10;		}&#10;		to {&#10;			visibility: hidden;&#10;&#10;		}&#10;	}&#10;&#10;	 .white {&#10;		animation: slideFrom infinite 2s;&#10;	}&#10;	.blue {&#10;		animation: slideFrom infinite .2s;&#10;		animation-delay: .2s;&#10;	}&#10;&#10;	@keyframes slideFrom {&#10;		0% {&#10;			transform: translateY(100%);&#10;			visibility: hidden;&#10;		}&#10;		50% {&#10;			transform: translateY(-90%);&#10;			visibility: visible;&#10;		}&#10;		100% {&#10;			transform: translateY(-60%);&#10;			visibility: visible;&#10;		}&#10;	}&#10;	</style>&#10;&#10;	<path
   class="bars"
   d="M 0.80489999,7.3933346 H 12.062557 M 0.80489999,12.917991 H 12.062557 M 0.80489999,18.442648 H 12.062557"
   stroke="#000000"
   stroke-width="1.6098"
   stroke-linecap="round"
   stroke-linejoin="round"
   id="path1" />&#10;	&#10;	&#10;	<rect
   class="red"
   style="fill:#ff0000;stroke-width:0.03"
   id="rect6"
   width="0.01375999"
   height="0.097003661"
   x="2.9238179"
   y="14.958917"
   ry="0.0068799951" />&#10;<g
   id="g117"
   transform="matrix(-0.01945821,0,0,-0.01783153,22.209391,5.9815866)"><path
     style="fill:#f5f5f5"
     d="M 473.655,0.001 H 38.345 C 17.167,0.001 0,17.168 0,38.346 v 258.759 c 0,21.177 17.167,38.345 38.345,38.345 h 435.31 C 494.832,335.45 512,318.283 512,297.105 V 38.346 C 512,17.168 494.833,0.001 473.655,0.001 Z"
     id="path2619" /><g
     id="g2635"
     transform="translate(0,-88.275)">&#10;	<path
   style="fill:#ff4b55"
   d="M 2.109,114.08 H 509.89 C 504.694,99.063 490.438,88.276 473.655,88.276 H 38.345 c -16.784,0 -31.039,10.787 -36.236,25.804 z"
   id="path2621" />&#10;	<rect
   y="191.49001"
   style="fill:#ff4b55"
   width="512"
   height="25.802999"
   id="rect2623"
   x="0" />&#10;	<rect
   y="139.88"
   style="fill:#ff4b55"
   width="512"
   height="25.802999"
   id="rect2625"
   x="0" />&#10;	<path
   style="fill:#ff4b55"
   d="m 0,260.074 c 0,4.875 3.953,8.828 8.828,8.828 H 512 V 243.098 H 0 Z"
   id="path2627" />&#10;	<rect
   y="346.32001"
   style="fill:#ff4b55"
   width="512"
   height="25.804001"
   id="rect2629"
   x="0" />&#10;	<path
   style="fill:#ff4b55"
   d="M 509.891,397.92 H 2.109 c 5.197,15.017 19.453,25.804 36.236,25.804 h 435.31 c 16.784,0 31.039,-10.787 36.236,-25.804 z"
   id="path2631" />&#10;	<rect
   y="294.70999"
   style="fill:#ff4b55"
   width="512"
   height="25.802999"
   id="rect2633"
   x="0" />&#10;</g><path
     style="fill:#41479b"
     d="m 8.828,180.627 h 220.69 c 4.875,0 8.828,-3.953 8.828,-8.828 V 8.828 C 238.346,3.952 234.393,0 229.518,0 H 38.345 C 17.167,0.001 0,17.168 0,38.346 v 133.453 c 0,4.876 3.953,8.828 8.828,8.828 z"
     id="path2637" /><g
     id="g2721"
     transform="translate(0,-88.275)">&#10;	<path
   style="fill:#f5f5f5"
   d="m 24.789,108.537 1.954,5.86 6.177,0.047 c 0.8,0.007 1.131,1.027 0.488,1.502 l -4.969,3.669 1.864,5.889 c 0.242,0.762 -0.627,1.394 -1.278,0.928 L 24,122.841 l -5.025,3.592 c -0.651,0.466 -1.518,-0.166 -1.278,-0.928 l 1.864,-5.889 -4.969,-3.669 c -0.643,-0.476 -0.312,-1.496 0.488,-1.502 l 6.177,-0.047 1.954,-5.86 c 0.252,-0.76 1.324,-0.76 1.578,-10e-4 z"
   id="path2639" />&#10;	<path
   style="fill:#f5f5f5"
   d="m 24.789,139.191 1.954,5.86 6.177,0.047 c 0.8,0.007 1.131,1.026 0.488,1.502 l -4.969,3.67 1.864,5.889 c 0.242,0.762 -0.627,1.394 -1.278,0.928 L 24,153.496 l -5.025,3.592 c -0.651,0.465 -1.518,-0.166 -1.278,-0.928 l 1.864,-5.889 -4.969,-3.67 c -0.643,-0.476 -0.312,-1.495 0.488,-1.502 l 6.177,-0.047 1.954,-5.86 c 0.252,-0.759 1.324,-0.759 1.578,-0.001 z"
   id="path2641" />&#10;	<path
   style="fill:#f5f5f5"
   d="m 24.789,169.846 1.954,5.86 6.177,0.047 c 0.8,0.007 1.131,1.026 0.488,1.502 l -4.969,3.67 1.864,5.889 c 0.242,0.762 -0.627,1.394 -1.278,0.928 L 24,184.151 l -5.025,3.592 c -0.651,0.465 -1.518,-0.165 -1.278,-0.928 l 1.864,-5.889 -4.969,-3.67 c -0.643,-0.476 -0.312,-1.495 0.488,-1.502 l 6.177,-0.047 1.954,-5.86 c 0.252,-0.76 1.324,-0.76 1.578,-0.001 z"
   id="path2643" />&#10;	<path
   style="fill:#f5f5f5"
   d="m 24.789,200.5 1.954,5.86 6.177,0.047 c 0.8,0.007 1.131,1.027 0.488,1.502 l -4.969,3.67 1.864,5.889 c 0.242,0.762 -0.627,1.394 -1.278,0.928 L 24,214.805 l -5.025,3.592 c -0.651,0.465 -1.518,-0.166 -1.278,-0.928 l 1.864,-5.889 -4.969,-3.67 c -0.643,-0.474 -0.312,-1.495 0.488,-1.502 l 6.177,-0.047 1.954,-5.86 c 0.252,-0.76 1.324,-0.76 1.578,-0.001 z"
   id="path2645" />&#10;	<path
   style="fill:#f5f5f5"
   d="m 24.789,231.154 1.954,5.86 6.177,0.047 c 0.8,0.007 1.131,1.026 0.488,1.502 l -4.969,3.67 1.864,5.889 c 0.242,0.762 -0.627,1.394 -1.278,0.928 L 24,245.459 l -5.025,3.592 c -0.651,0.465 -1.518,-0.166 -1.278,-0.928 l 1.864,-5.889 -4.969,-3.67 c -0.643,-0.476 -0.312,-1.495 0.488,-1.502 l 6.177,-0.047 1.954,-5.86 c 0.252,-0.759 1.324,-0.759 1.578,-0.001 z"
   id="path2647" />&#10;	<path
   style="fill:#f5f5f5"
   d="m 48.582,123.566 1.954,5.86 6.177,0.047 c 0.8,0.007 1.131,1.027 0.488,1.502 l -4.969,3.67 1.864,5.889 c 0.242,0.762 -0.627,1.394 -1.278,0.928 l -5.025,-3.592 -5.025,3.592 c -0.651,0.465 -1.518,-0.166 -1.278,-0.928 l 1.864,-5.889 -4.969,-3.67 c -0.643,-0.476 -0.312,-1.495 0.488,-1.502 l 6.177,-0.047 1.954,-5.86 c 0.252,-0.758 1.325,-0.758 1.578,0 z"
   id="path2649" />&#10;	<path
   style="fill:#f5f5f5"
   d="m 48.582,154.221 1.954,5.86 6.177,0.047 c 0.8,0.007 1.131,1.027 0.488,1.502 l -4.969,3.67 1.864,5.889 c 0.242,0.762 -0.627,1.394 -1.278,0.928 l -5.025,-3.592 -5.025,3.592 c -0.651,0.465 -1.518,-0.165 -1.278,-0.928 l 1.864,-5.889 -4.969,-3.67 c -0.643,-0.474 -0.312,-1.495 0.488,-1.502 l 6.177,-0.047 1.954,-5.86 c 0.252,-0.759 1.325,-0.759 1.578,0 z"
   id="path2651" />&#10;	<path
   style="fill:#f5f5f5"
   d="m 48.582,184.875 1.954,5.86 6.177,0.047 c 0.8,0.007 1.131,1.026 0.488,1.502 l -4.969,3.67 1.864,5.889 c 0.242,0.762 -0.627,1.394 -1.278,0.928 l -5.025,-3.592 -5.025,3.592 c -0.651,0.465 -1.518,-0.166 -1.278,-0.928 l 1.864,-5.889 -4.969,-3.67 c -0.643,-0.476 -0.312,-1.495 0.488,-1.502 l 6.177,-0.047 1.954,-5.86 c 0.252,-0.759 1.325,-0.759 1.578,0 z"
   id="path2653" />&#10;	<path
   style="fill:#f5f5f5"
   d="m 48.582,215.529 1.954,5.86 6.177,0.047 c 0.8,0.007 1.131,1.026 0.488,1.502 l -4.969,3.67 1.864,5.889 c 0.242,0.762 -0.627,1.394 -1.278,0.928 l -5.025,-3.592 -5.025,3.592 c -0.651,0.466 -1.518,-0.166 -1.278,-0.928 l 1.864,-5.889 -4.969,-3.67 c -0.643,-0.476 -0.312,-1.495 0.488,-1.502 l 6.177,-0.047 1.954,-5.86 c 0.252,-0.758 1.325,-0.758 1.578,0 z"
   id="path2655" />&#10;	<path
   style="fill:#f5f5f5"
   d="m 72.375,108.537 1.954,5.86 6.177,0.047 c 0.8,0.007 1.131,1.027 0.488,1.502 l -4.969,3.669 1.864,5.889 c 0.242,0.762 -0.627,1.394 -1.278,0.928 l -5.025,-3.592 -5.025,3.592 c -0.651,0.466 -1.518,-0.166 -1.278,-0.928 l 1.864,-5.889 -4.969,-3.669 c -0.643,-0.476 -0.312,-1.496 0.488,-1.502 l 6.177,-0.047 1.954,-5.86 c 0.252,-0.759 1.325,-0.759 1.578,0 z"
   id="path2657" />&#10;	<path
   style="fill:#f5f5f5"
   d="m 72.375,139.191 1.954,5.86 6.177,0.047 c 0.8,0.007 1.131,1.026 0.488,1.502 l -4.969,3.67 1.864,5.889 c 0.242,0.762 -0.627,1.394 -1.278,0.928 l -5.025,-3.592 -5.025,3.592 c -0.651,0.465 -1.518,-0.166 -1.278,-0.928 l 1.864,-5.889 -4.969,-3.67 c -0.643,-0.476 -0.312,-1.495 0.488,-1.502 l 6.177,-0.047 1.954,-5.86 c 0.252,-0.758 1.325,-0.758 1.578,0 z"
   id="path2659" />&#10;	<path
   style="fill:#f5f5f5"
   d="m 72.375,169.846 1.954,5.86 6.177,0.047 c 0.8,0.007 1.131,1.026 0.488,1.502 l -4.969,3.67 1.864,5.889 c 0.242,0.762 -0.627,1.394 -1.278,0.928 l -5.025,-3.592 -5.025,3.592 c -0.651,0.465 -1.518,-0.165 -1.278,-0.928 l 1.864,-5.889 -4.969,-3.67 c -0.643,-0.476 -0.312,-1.495 0.488,-1.502 l 6.177,-0.047 1.954,-5.86 c 0.252,-0.759 1.325,-0.759 1.578,0 z"
   id="path2661" />&#10;	<path
   style="fill:#f5f5f5"
   d="m 72.375,200.5 1.954,5.86 6.177,0.047 c 0.8,0.007 1.131,1.027 0.488,1.502 l -4.969,3.67 1.864,5.889 c 0.242,0.762 -0.627,1.394 -1.278,0.928 l -5.025,-3.592 -5.025,3.592 c -0.651,0.465 -1.518,-0.166 -1.278,-0.928 l 1.864,-5.889 -4.969,-3.67 c -0.643,-0.474 -0.312,-1.495 0.488,-1.502 l 6.177,-0.047 1.954,-5.86 c 0.252,-0.759 1.325,-0.759 1.578,0 z"
   id="path2663" />&#10;	<path
   style="fill:#f5f5f5"
   d="m 72.375,231.154 1.954,5.86 6.177,0.047 c 0.8,0.007 1.131,1.026 0.488,1.502 l -4.969,3.67 1.864,5.889 c 0.242,0.762 -0.627,1.394 -1.278,0.928 l -5.025,-3.592 -5.025,3.592 c -0.651,0.465 -1.518,-0.166 -1.278,-0.928 l 1.864,-5.889 -4.969,-3.67 c -0.643,-0.476 -0.312,-1.495 0.488,-1.502 l 6.177,-0.047 1.954,-5.86 c 0.252,-0.758 1.325,-0.758 1.578,0 z"
   id="path2665" />&#10;	<path
   style="fill:#f5f5f5"
   d="m 96.169,123.566 1.954,5.86 6.177,0.047 c 0.8,0.007 1.131,1.027 0.488,1.502 l -4.969,3.67 1.864,5.889 c 0.242,0.762 -0.627,1.394 -1.278,0.928 l -5.025,-3.592 -5.025,3.592 c -0.651,0.465 -1.518,-0.166 -1.278,-0.928 l 1.864,-5.889 -4.969,-3.67 c -0.643,-0.476 -0.312,-1.495 0.488,-1.502 l 6.177,-0.047 1.954,-5.86 c 0.251,-0.758 1.325,-0.758 1.578,0 z"
   id="path2667" />&#10;	<path
   style="fill:#f5f5f5"
   d="m 96.169,154.221 1.954,5.86 6.177,0.047 c 0.8,0.007 1.131,1.027 0.488,1.502 l -4.969,3.67 1.864,5.889 c 0.242,0.762 -0.627,1.394 -1.278,0.928 l -5.025,-3.592 -5.025,3.592 c -0.651,0.465 -1.518,-0.165 -1.278,-0.928 l 1.864,-5.889 -4.969,-3.67 c -0.643,-0.474 -0.312,-1.495 0.488,-1.502 l 6.177,-0.047 1.954,-5.86 c 0.251,-0.759 1.325,-0.759 1.578,0 z"
   id="path2669" />&#10;	<path
   style="fill:#f5f5f5"
   d="m 96.169,184.875 1.954,5.86 6.177,0.047 c 0.8,0.007 1.131,1.026 0.488,1.502 l -4.969,3.67 1.864,5.889 c 0.242,0.762 -0.627,1.394 -1.278,0.928 l -5.025,-3.592 -5.025,3.592 c -0.651,0.465 -1.518,-0.166 -1.278,-0.928 l 1.864,-5.889 -4.969,-3.67 c -0.643,-0.476 -0.312,-1.495 0.488,-1.502 l 6.177,-0.047 1.954,-5.86 c 0.251,-0.759 1.325,-0.759 1.578,0 z"
   id="path2671" />&#10;	<path
   style="fill:#f5f5f5"
   d="m 96.169,215.529 1.954,5.86 6.177,0.047 c 0.8,0.007 1.131,1.026 0.488,1.502 l -4.969,3.67 1.864,5.889 c 0.242,0.762 -0.627,1.394 -1.278,0.928 l -5.025,-3.592 -5.025,3.592 c -0.651,0.466 -1.518,-0.166 -1.278,-0.928 l 1.864,-5.889 -4.969,-3.67 c -0.643,-0.476 -0.312,-1.495 0.488,-1.502 l 6.177,-0.047 1.954,-5.86 c 0.251,-0.758 1.325,-0.758 1.578,0 z"
   id="path2673" />&#10;	<path
   style="fill:#f5f5f5"
   d="m 119.962,108.537 1.954,5.86 6.177,0.047 c 0.8,0.007 1.131,1.027 0.488,1.502 l -4.969,3.669 1.864,5.889 c 0.242,0.762 -0.627,1.394 -1.278,0.928 l -5.026,-3.591 -5.025,3.592 c -0.651,0.466 -1.518,-0.166 -1.278,-0.928 l 1.864,-5.889 -4.969,-3.669 c -0.643,-0.476 -0.312,-1.496 0.488,-1.502 l 6.177,-0.047 1.954,-5.86 c 0.253,-0.76 1.326,-0.76 1.579,-10e-4 z"
   id="path2675" />&#10;	<path
   style="fill:#f5f5f5"
   d="m 119.962,139.191 1.954,5.86 6.177,0.047 c 0.8,0.007 1.131,1.026 0.488,1.502 l -4.969,3.67 1.864,5.889 c 0.242,0.762 -0.627,1.394 -1.278,0.928 l -5.026,-3.592 -5.025,3.592 c -0.651,0.465 -1.518,-0.166 -1.278,-0.928 l 1.864,-5.889 -4.969,-3.67 c -0.643,-0.476 -0.312,-1.495 0.488,-1.502 l 6.177,-0.047 1.954,-5.86 c 0.253,-0.758 1.326,-0.758 1.579,0 z"
   id="path2677" />&#10;	<path
   style="fill:#f5f5f5"
   d="m 119.962,169.846 1.954,5.86 6.177,0.047 c 0.8,0.007 1.131,1.026 0.488,1.502 l -4.969,3.67 1.864,5.889 c 0.242,0.762 -0.627,1.394 -1.278,0.928 l -5.026,-3.593 -5.025,3.592 c -0.651,0.465 -1.518,-0.166 -1.278,-0.928 l 1.864,-5.889 -4.969,-3.67 c -0.643,-0.476 -0.312,-1.495 0.488,-1.502 l 6.177,-0.047 1.954,-5.86 c 0.253,-0.758 1.326,-0.758 1.579,0.001 z"
   id="path2679" />&#10;	<path
   style="fill:#f5f5f5"
   d="m 119.962,200.5 1.954,5.86 6.177,0.047 c 0.8,0.007 1.131,1.027 0.488,1.502 l -4.969,3.67 1.864,5.889 c 0.242,0.762 -0.627,1.394 -1.278,0.928 l -5.026,-3.592 -5.025,3.592 c -0.651,0.465 -1.518,-0.166 -1.278,-0.928 l 1.864,-5.889 -4.969,-3.67 c -0.643,-0.474 -0.312,-1.495 0.488,-1.502 l 6.177,-0.047 1.954,-5.86 c 0.253,-0.759 1.326,-0.759 1.579,0 z"
   id="path2681" />&#10;	<path
   style="fill:#f5f5f5"
   d="m 119.962,231.154 1.954,5.86 6.177,0.047 c 0.8,0.007 1.131,1.026 0.488,1.502 l -4.969,3.67 1.864,5.889 c 0.242,0.762 -0.627,1.394 -1.278,0.928 l -5.026,-3.592 -5.025,3.592 c -0.651,0.465 -1.518,-0.166 -1.278,-0.928 l 1.864,-5.889 -4.969,-3.67 c -0.643,-0.476 -0.312,-1.495 0.488,-1.502 l 6.177,-0.047 1.954,-5.86 c 0.253,-0.758 1.326,-0.758 1.579,0 z"
   id="path2683" />&#10;	<path
   style="fill:#f5f5f5"
   d="m 143.755,123.566 1.954,5.86 6.177,0.047 c 0.8,0.007 1.131,1.027 0.488,1.502 l -4.969,3.67 1.864,5.889 c 0.242,0.762 -0.627,1.394 -1.278,0.928 l -5.025,-3.592 -5.025,3.592 c -0.651,0.465 -1.518,-0.166 -1.278,-0.928 l 1.864,-5.889 -4.969,-3.67 c -0.643,-0.476 -0.312,-1.495 0.488,-1.502 l 6.177,-0.047 1.954,-5.86 c 0.253,-0.758 1.325,-0.758 1.578,0 z"
   id="path2685" />&#10;	<path
   style="fill:#f5f5f5"
   d="m 143.755,154.221 1.954,5.86 6.177,0.047 c 0.8,0.007 1.131,1.027 0.488,1.502 l -4.969,3.67 1.864,5.889 c 0.242,0.762 -0.627,1.394 -1.278,0.928 l -5.025,-3.592 -5.025,3.592 c -0.651,0.465 -1.518,-0.165 -1.278,-0.928 l 1.864,-5.889 -4.969,-3.67 c -0.643,-0.474 -0.312,-1.495 0.488,-1.502 l 6.177,-0.047 1.954,-5.86 c 0.253,-0.759 1.325,-0.759 1.578,0 z"
   id="path2687" />&#10;	<path
   style="fill:#f5f5f5"
   d="m 143.755,184.875 1.954,5.86 6.177,0.047 c 0.8,0.007 1.131,1.026 0.488,1.502 l -4.969,3.67 1.864,5.889 c 0.242,0.762 -0.627,1.394 -1.278,0.928 l -5.025,-3.592 -5.025,3.592 c -0.651,0.465 -1.518,-0.166 -1.278,-0.928 l 1.864,-5.889 -4.969,-3.67 c -0.643,-0.476 -0.312,-1.495 0.488,-1.502 l 6.177,-0.047 1.954,-5.86 c 0.253,-0.759 1.325,-0.759 1.578,0 z"
   id="path2689" />&#10;	<path
   style="fill:#f5f5f5"
   d="m 143.755,215.529 1.954,5.86 6.177,0.047 c 0.8,0.007 1.131,1.026 0.488,1.502 l -4.969,3.67 1.864,5.889 c 0.242,0.762 -0.627,1.394 -1.278,0.928 l -5.025,-3.592 -5.025,3.592 c -0.651,0.466 -1.518,-0.166 -1.278,-0.928 l 1.864,-5.889 -4.969,-3.67 c -0.643,-0.476 -0.312,-1.495 0.488,-1.502 l 6.177,-0.047 1.954,-5.86 c 0.253,-0.758 1.325,-0.758 1.578,0 z"
   id="path2691" />&#10;	<path
   style="fill:#f5f5f5"
   d="m 167.549,108.537 1.954,5.86 6.177,0.047 c 0.8,0.007 1.131,1.027 0.488,1.502 l -4.969,3.669 1.864,5.889 c 0.242,0.762 -0.627,1.394 -1.278,0.928 l -5.025,-3.592 -5.025,3.592 c -0.651,0.466 -1.518,-0.166 -1.278,-0.928 l 1.864,-5.889 -4.969,-3.669 c -0.643,-0.476 -0.312,-1.496 0.488,-1.502 l 6.177,-0.047 1.954,-5.86 c 0.251,-0.759 1.325,-0.759 1.578,0 z"
   id="path2693" />&#10;	<path
   style="fill:#f5f5f5"
   d="m 167.549,139.191 1.954,5.86 6.177,0.047 c 0.8,0.007 1.131,1.026 0.488,1.502 l -4.969,3.67 1.864,5.889 c 0.242,0.762 -0.627,1.394 -1.278,0.928 l -5.025,-3.592 -5.025,3.592 c -0.651,0.465 -1.518,-0.166 -1.278,-0.928 l 1.864,-5.889 -4.969,-3.67 c -0.643,-0.476 -0.312,-1.495 0.488,-1.502 l 6.177,-0.047 1.954,-5.86 c 0.251,-0.758 1.325,-0.758 1.578,0 z"
   id="path2695" />&#10;	<path
   style="fill:#f5f5f5"
   d="m 167.549,169.846 1.954,5.86 6.177,0.047 c 0.8,0.007 1.131,1.026 0.488,1.502 l -4.969,3.67 1.864,5.889 c 0.242,0.762 -0.627,1.394 -1.278,0.928 l -5.025,-3.592 -5.025,3.592 c -0.651,0.465 -1.518,-0.165 -1.278,-0.928 l 1.864,-5.889 -4.969,-3.67 c -0.643,-0.476 -0.312,-1.495 0.488,-1.502 l 6.177,-0.047 1.954,-5.86 c 0.251,-0.759 1.325,-0.759 1.578,0 z"
   id="path2697" />&#10;	<path
   style="fill:#f5f5f5"
   d="m 167.549,200.5 1.954,5.86 6.177,0.047 c 0.8,0.007 1.131,1.027 0.488,1.502 l -4.969,3.67 1.864,5.889 c 0.242,0.762 -0.627,1.394 -1.278,0.928 l -5.025,-3.592 -5.025,3.592 c -0.651,0.465 -1.518,-0.166 -1.278,-0.928 l 1.864,-5.889 -4.969,-3.67 c -0.643,-0.474 -0.312,-1.495 0.488,-1.502 l 6.177,-0.047 1.954,-5.86 c 0.251,-0.759 1.325,-0.759 1.578,0 z"
   id="path2699" />&#10;	<path
   style="fill:#f5f5f5"
   d="m 167.549,231.154 1.954,5.86 6.177,0.047 c 0.8,0.007 1.131,1.026 0.488,1.502 l -4.969,3.67 1.864,5.889 c 0.242,0.762 -0.627,1.394 -1.278,0.928 l -5.025,-3.592 -5.025,3.592 c -0.651,0.465 -1.518,-0.166 -1.278,-0.928 l 1.864,-5.889 -4.969,-3.67 c -0.643,-0.476 -0.312,-1.495 0.488,-1.502 l 6.177,-0.047 1.954,-5.86 c 0.251,-0.758 1.325,-0.758 1.578,0 z"
   id="path2701" />&#10;	<path
   style="fill:#f5f5f5"
   d="m 191.342,123.566 1.954,5.86 6.177,0.047 c 0.8,0.007 1.131,1.027 0.488,1.502 l -4.969,3.67 1.864,5.889 c 0.242,0.762 -0.627,1.394 -1.278,0.928 l -5.025,-3.592 -5.025,3.592 c -0.651,0.465 -1.518,-0.166 -1.278,-0.928 l 1.864,-5.889 -4.969,-3.67 c -0.643,-0.476 -0.312,-1.495 0.488,-1.502 l 6.177,-0.047 1.954,-5.86 c 0.252,-0.758 1.325,-0.758 1.578,0 z"
   id="path2703" />&#10;	<path
   style="fill:#f5f5f5"
   d="m 191.342,154.221 1.954,5.86 6.177,0.047 c 0.8,0.007 1.131,1.027 0.488,1.502 l -4.969,3.67 1.864,5.889 c 0.242,0.762 -0.627,1.394 -1.278,0.928 l -5.025,-3.592 -5.025,3.592 c -0.651,0.465 -1.518,-0.165 -1.278,-0.928 l 1.864,-5.889 -4.969,-3.67 c -0.643,-0.474 -0.312,-1.495 0.488,-1.502 l 6.177,-0.047 1.954,-5.86 c 0.252,-0.759 1.325,-0.759 1.578,0 z"
   id="path2705" />&#10;	<path
   style="fill:#f5f5f5"
   d="m 191.342,184.875 1.954,5.86 6.177,0.047 c 0.8,0.007 1.131,1.026 0.488,1.502 l -4.969,3.67 1.864,5.889 c 0.242,0.762 -0.627,1.394 -1.278,0.928 l -5.025,-3.592 -5.025,3.592 c -0.651,0.465 -1.518,-0.166 -1.278,-0.928 l 1.864,-5.889 -4.969,-3.67 c -0.643,-0.476 -0.312,-1.495 0.488,-1.502 l 6.177,-0.047 1.954,-5.86 c 0.252,-0.759 1.325,-0.759 1.578,0 z"
   id="path2707" />&#10;	<path
   style="fill:#f5f5f5"
   d="m 191.342,215.529 1.954,5.86 6.177,0.047 c 0.8,0.007 1.131,1.026 0.488,1.502 l -4.969,3.67 1.864,5.889 c 0.242,0.762 -0.627,1.394 -1.278,0.928 l -5.025,-3.592 -5.025,3.592 c -0.651,0.466 -1.518,-0.166 -1.278,-0.928 l 1.864,-5.889 -4.969,-3.67 c -0.643,-0.476 -0.312,-1.495 0.488,-1.502 l 6.177,-0.047 1.954,-5.86 c 0.252,-0.758 1.325,-0.758 1.578,0 z"
   id="path2709" />&#10;	<path
   style="fill:#f5f5f5"
   d="m 215.136,108.537 1.954,5.86 6.177,0.047 c 0.8,0.007 1.131,1.027 0.488,1.502 l -4.969,3.669 1.864,5.889 c 0.242,0.762 -0.627,1.394 -1.278,0.928 l -5.025,-3.592 -5.025,3.592 c -0.651,0.466 -1.518,-0.166 -1.278,-0.928 l 1.864,-5.889 -4.969,-3.669 c -0.643,-0.476 -0.312,-1.496 0.488,-1.502 l 6.177,-0.047 1.954,-5.86 c 0.252,-0.759 1.324,-0.759 1.578,0 z"
   id="path2711" />&#10;	<path
   style="fill:#f5f5f5"
   d="m 215.136,139.191 1.954,5.86 6.177,0.047 c 0.8,0.007 1.131,1.026 0.488,1.502 l -4.969,3.67 1.864,5.889 c 0.242,0.762 -0.627,1.394 -1.278,0.928 l -5.025,-3.592 -5.025,3.592 c -0.651,0.465 -1.518,-0.166 -1.278,-0.928 l 1.864,-5.889 -4.969,-3.67 c -0.643,-0.476 -0.312,-1.495 0.488,-1.502 l 6.177,-0.047 1.954,-5.86 c 0.252,-0.758 1.324,-0.758 1.578,0 z"
   id="path2713" />&#10;	<path
   style="fill:#f5f5f5"
   d="m 215.136,169.846 1.954,5.86 6.177,0.047 c 0.8,0.007 1.131,1.026 0.488,1.502 l -4.969,3.67 1.864,5.889 c 0.242,0.762 -0.627,1.394 -1.278,0.928 l -5.025,-3.592 -5.025,3.592 c -0.651,0.465 -1.518,-0.165 -1.278,-0.928 l 1.864,-5.889 -4.969,-3.67 c -0.643,-0.476 -0.312,-1.495 0.488,-1.502 l 6.177,-0.047 1.954,-5.86 c 0.252,-0.759 1.324,-0.759 1.578,0 z"
   id="path2715" />&#10;	<path
   style="fill:#f5f5f5"
   d="m 215.136,200.5 1.954,5.86 6.177,0.047 c 0.8,0.007 1.131,1.027 0.488,1.502 l -4.969,3.67 1.864,5.889 c 0.242,0.762 -0.627,1.394 -1.278,0.928 l -5.025,-3.592 -5.025,3.592 c -0.651,0.465 -1.518,-0.166 -1.278,-0.928 l 1.864,-5.889 -4.969,-3.67 c -0.643,-0.474 -0.312,-1.495 0.488,-1.502 l 6.177,-0.047 1.954,-5.86 c 0.252,-0.759 1.324,-0.759 1.578,0 z"
   id="path2717" />&#10;	<path
   style="fill:#f5f5f5"
   d="m 215.136,231.154 1.954,5.86 6.177,0.047 c 0.8,0.007 1.131,1.026 0.488,1.502 l -4.969,3.67 1.864,5.889 c 0.242,0.762 -0.627,1.394 -1.278,0.928 l -5.025,-3.592 -5.025,3.592 c -0.651,0.465 -1.518,-0.166 -1.278,-0.928 l 1.864,-5.889 -4.969,-3.67 c -0.643,-0.476 -0.312,-1.495 0.488,-1.502 l 6.177,-0.047 1.954,-5.86 c 0.252,-0.758 1.324,-0.758 1.578,0 z"
   id="path2719" />&#10;</g><g
     id="g2723"
     transform="translate(0,-88.275)">&#10;</g><g
     id="g2725"
     transform="translate(0,-88.275)">&#10;</g><g
     id="g2727"
     transform="translate(0,-88.275)">&#10;</g><g
     id="g2729"
     transform="translate(0,-88.275)">&#10;</g><g
     id="g2731"
     transform="translate(0,-88.275)">&#10;</g><g
     id="g2733"
     transform="translate(0,-88.275)">&#10;</g><g
     id="g2735"
     transform="translate(0,-88.275)">&#10;</g><g
     id="g2737"
     transform="translate(0,-88.275)">&#10;</g><g
     id="g2739"
     transform="translate(0,-88.275)">&#10;</g><g
     id="g2741"
     transform="translate(0,-88.275)">&#10;</g><g
     id="g2743"
     transform="translate(0,-88.275)">&#10;</g><g
     id="g2745"
     transform="translate(0,-88.275)">&#10;</g><g
     id="g2747"
     transform="translate(0,-88.275)">&#10;</g><g
     id="g2749"
     transform="translate(0,-88.275)">&#10;</g><g
     id="g2751"
     transform="translate(0,-88.275)">&#10;</g></g></svg>
