<?xml version="1.0" encoding="UTF-8" standalone="no"?>
<!-- Uploaded to: SVG Repo, www.svgrepo.com, Generator: SVG Repo Mixer Tools -->

<svg
   viewBox="0 0 23.767191 21.977561"
   fill="none"
   version="1.1"
	 id="complete"
   sodipodi:docname="ru.svg"
   inkscape:export-filename="../menu-icons/ua.svg"
   inkscape:export-xdpi="96"
   inkscape:export-ydpi="96"
   xml:space="preserve"
   inkscape:version="1.3 (0e150ed6c4, 2023-07-21)"
   width="23.767191"
   height="21.97756"
   xmlns:inkscape="http://www.inkscape.org/namespaces/inkscape"
   xmlns:sodipodi="http://sodipodi.sourceforge.net/DTD/sodipodi-0.dtd"
   xmlns="http://www.w3.org/2000/svg"
   xmlns:svg="http://www.w3.org/2000/svg"><defs
   id="defs1" /><sodipodi:namedview
   id="namedview1"
   pagecolor="#ffffff"
   bordercolor="#000000"
   borderopacity="0.25"
   inkscape:showpageshadow="2"
   inkscape:pageopacity="0.0"
   inkscape:pagecheckerboard="0"
   inkscape:deskcolor="#d1d1d1"
   inkscape:zoom="35.76243"
   inkscape:cx="6.6130852"
   inkscape:cy="10.30411"
   inkscape:window-width="1920"
   inkscape:window-height="935"
   inkscape:window-x="0"
   inkscape:window-y="32"
   inkscape:window-maximized="1"
   inkscape:current-layer="svg1" />&#10;	<style
   id="style1">&#10;	path {&#10;		animation: slideTo infinite .2s;&#10;		overflow: hidden;&#10;	}&#10;&#10;	@keyframes slideTo {&#10;		from {&#10;			visibility: visible;&#10;&#10;		}&#10;		to {&#10;			visibility: hidden;&#10;&#10;		}&#10;	}&#10;&#10;	 .white {&#10;		animation: slideFrom infinite 2s;&#10;	}&#10;	.blue {&#10;		animation: slideFrom infinite .2s;&#10;		animation-delay: .2s;&#10;	}&#10;&#10;	@keyframes slideFrom {&#10;		0% {&#10;			transform: translateY(100%);&#10;			visibility: hidden;&#10;		}&#10;		50% {&#10;			transform: translateY(-90%);&#10;			visibility: visible;&#10;		}&#10;		100% {&#10;			transform: translateY(-60%);&#10;			visibility: visible;&#10;		}&#10;	}&#10;	</style>&#10;&#10;	<path
   class="bars"
   d="M 0.80489999,10.123347 H 12.062557 M 0.80489999,15.648003 H 12.062557 M 0.80489999,21.17266 H 12.062557"
   stroke="#000000"
   stroke-width="1.6098"
   stroke-linecap="round"
   stroke-linejoin="round"
   id="path1" />&#10;	&#10;	&#10;	<rect
   class="red"
   style="fill:#ff0000;stroke-width:0.03"
   id="rect6"
   width="0.01375999"
   height="0.097003661"
   x="2.9238179"
   y="17.688929"
   ry="0.0068799951" />&#10;<g
   id="g116"
   transform="matrix(0.02289221,0,0,0.02581205,12.04638,-1.9581617e-7)"><path
     style="fill:#82afff"
     d="M 473.655,0 H 38.345 C 17.167,0 0,17.167 0,38.345 v 63.539 H 512 V 38.345 C 512,17.167 494.833,0 473.655,0 Z"
     id="path2837" /><path
     style="fill:#73af00"
     d="m 0,297.103 c 0,21.177 17.167,38.345 38.345,38.345 h 435.31 c 21.177,0 38.345,-17.167 38.345,-38.345 V 233.564 H 0 Z"
     id="path2839" /><rect
     y="115.82401"
     style="fill:#f5f5f5"
     width="512"
     height="103.79"
     id="rect2841"
     x="0" /><g
     id="g2847"
     transform="translate(0,-88.276)">&#10;	<polygon
   style="fill:#ff4b55"
   points="512,204.102 512,200.092 512,190.159 0,190.159 0,200.092 0,204.102 "
   id="polygon2843" />&#10;	<polygon
   style="fill:#ff4b55"
   points="512,321.841 512,311.908 512,307.898 0,307.898 0,311.908 0,321.841 "
   id="polygon2845" />&#10;</g><g
     id="g2881"
     transform="translate(0,-88.276)">&#10;	<path
   style="fill:#f5f5f5"
   d="m 113.491,172.071 c -18.072,0 -32.721,-14.614 -32.721,-32.621 0,-18.073 14.648,-32.753 32.721,-32.753 0.07,0 0.138,0 0.206,10e-4 1.064,0.014 1.437,-1.399 0.499,-1.902 -5.565,-2.983 -11.916,-4.671 -18.668,-4.622 -21.624,0.154 -39.189,18.073 -38.959,39.697 0.226,21.401 17.722,38.724 39.242,38.724 6.659,0 12.921,-1.685 18.417,-4.627 0.935,-0.501 0.557,-1.914 -0.503,-1.899 -0.08,0.002 -0.157,0.002 -0.234,0.002 z"
   id="path2849" />&#10;	<path
   style="fill:#f5f5f5"
   d="m 139.113,163.05 -1.461,4.382 -4.619,0.035 c -0.598,0.004 -0.846,0.768 -0.365,1.123 l 3.716,2.744 -1.394,4.404 c -0.18,0.57 0.469,1.042 0.956,0.694 l 3.758,-2.686 3.758,2.686 c 0.487,0.348 1.135,-0.124 0.956,-0.694 l -1.394,-4.404 3.715,-2.744 c 0.481,-0.355 0.233,-1.119 -0.365,-1.123 l -4.619,-0.035 -1.461,-4.382 c -0.189,-0.567 -0.991,-0.567 -1.181,0 z"
   id="path2851" />&#10;	<path
   style="fill:#f5f5f5"
   d="m 171.656,163.05 -1.461,4.382 -4.619,0.035 c -0.598,0.004 -0.846,0.768 -0.365,1.123 l 3.715,2.744 -1.394,4.404 c -0.18,0.57 0.469,1.042 0.956,0.694 l 3.758,-2.686 3.758,2.686 c 0.487,0.348 1.135,-0.124 0.956,-0.694 l -1.394,-4.404 3.715,-2.744 c 0.481,-0.355 0.233,-1.119 -0.365,-1.123 l -4.619,-0.035 -1.461,-4.382 c -0.189,-0.567 -0.992,-0.567 -1.18,0 z"
   id="path2853" />&#10;	<path
   style="fill:#f5f5f5"
   d="m 204.198,163.05 -1.461,4.382 -4.619,0.035 c -0.598,0.004 -0.846,0.768 -0.365,1.123 l 3.716,2.744 -1.394,4.404 c -0.18,0.57 0.469,1.042 0.956,0.694 l 3.758,-2.686 3.758,2.686 c 0.487,0.348 1.135,-0.124 0.956,-0.694 l -1.394,-4.404 3.715,-2.744 c 0.481,-0.355 0.233,-1.119 -0.365,-1.123 l -4.619,-0.035 -1.461,-4.382 c -0.189,-0.567 -0.992,-0.567 -1.181,0 z"
   id="path2855" />&#10;	<path
   style="fill:#f5f5f5"
   d="m 236.74,163.05 -1.461,4.382 -4.619,0.035 c -0.598,0.004 -0.846,0.768 -0.365,1.123 l 3.715,2.744 -1.394,4.404 c -0.18,0.57 0.469,1.042 0.956,0.694 l 3.758,-2.686 3.758,2.686 c 0.487,0.348 1.135,-0.124 0.956,-0.694 l -1.394,-4.404 3.715,-2.744 c 0.481,-0.355 0.233,-1.119 -0.365,-1.123 l -4.619,-0.035 -1.461,-4.382 c -0.188,-0.567 -0.991,-0.567 -1.18,0 z"
   id="path2857" />&#10;	<path
   style="fill:#f5f5f5"
   d="m 269.283,163.05 -1.461,4.382 -4.619,0.035 c -0.598,0.004 -0.846,0.768 -0.365,1.123 l 3.716,2.744 -1.394,4.404 c -0.18,0.57 0.469,1.042 0.956,0.694 l 3.758,-2.686 3.758,2.686 c 0.487,0.348 1.135,-0.124 0.956,-0.694 l -1.394,-4.404 3.716,-2.744 c 0.481,-0.355 0.233,-1.119 -0.365,-1.123 l -4.619,-0.035 -1.461,-4.382 c -0.191,-0.567 -0.993,-0.567 -1.182,0 z"
   id="path2859" />&#10;	<path
   style="fill:#f5f5f5"
   d="m 171.656,132.678 -1.461,4.382 -4.619,0.035 c -0.598,0.004 -0.846,0.768 -0.365,1.123 l 3.715,2.744 -1.394,4.404 c -0.18,0.57 0.469,1.042 0.956,0.694 l 3.758,-2.686 3.758,2.686 c 0.487,0.348 1.135,-0.124 0.956,-0.694 l -1.394,-4.404 3.715,-2.744 c 0.481,-0.355 0.233,-1.119 -0.365,-1.123 l -4.619,-0.035 -1.461,-4.382 c -0.189,-0.569 -0.992,-0.569 -1.18,0 z"
   id="path2861" />&#10;	<path
   style="fill:#f5f5f5"
   d="m 204.198,132.678 -1.461,4.382 -4.619,0.035 c -0.598,0.004 -0.846,0.768 -0.365,1.123 l 3.716,2.744 -1.394,4.404 c -0.18,0.57 0.469,1.042 0.956,0.694 l 3.758,-2.686 3.758,2.686 c 0.487,0.348 1.135,-0.124 0.956,-0.694 l -1.394,-4.404 3.715,-2.744 c 0.481,-0.355 0.233,-1.119 -0.365,-1.123 l -4.619,-0.035 -1.461,-4.382 c -0.189,-0.569 -0.992,-0.569 -1.181,0 z"
   id="path2863" />&#10;	<path
   style="fill:#f5f5f5"
   d="m 236.74,132.678 -1.461,4.382 -4.619,0.035 c -0.598,0.004 -0.846,0.768 -0.365,1.123 l 3.715,2.744 -1.394,4.404 c -0.18,0.57 0.469,1.042 0.956,0.694 l 3.758,-2.686 3.758,2.686 c 0.487,0.348 1.135,-0.124 0.956,-0.694 l -1.394,-4.404 3.715,-2.744 c 0.481,-0.355 0.233,-1.119 -0.365,-1.123 l -4.619,-0.035 -1.461,-4.382 c -0.188,-0.569 -0.991,-0.569 -1.18,0 z"
   id="path2865" />&#10;	<path
   style="fill:#f5f5f5"
   d="m 269.283,132.678 -1.461,4.382 -4.619,0.035 c -0.598,0.004 -0.846,0.768 -0.365,1.123 l 3.716,2.744 -1.394,4.404 c -0.18,0.57 0.469,1.042 0.956,0.694 l 3.758,-2.686 3.758,2.686 c 0.487,0.348 1.135,-0.124 0.956,-0.694 l -1.394,-4.404 3.716,-2.744 c 0.481,-0.355 0.233,-1.119 -0.365,-1.123 l -4.619,-0.035 -1.461,-4.382 c -0.191,-0.569 -0.993,-0.569 -1.182,0 z"
   id="path2867" />&#10;	<path
   style="fill:#f5f5f5"
   d="m 204.198,163.05 -1.461,4.382 -4.619,0.035 c -0.598,0.004 -0.846,0.768 -0.365,1.123 l 3.716,2.744 -1.394,4.404 c -0.18,0.57 0.469,1.042 0.956,0.694 l 3.758,-2.686 3.758,2.686 c 0.487,0.348 1.135,-0.124 0.956,-0.694 l -1.394,-4.404 3.715,-2.744 c 0.481,-0.355 0.233,-1.119 -0.365,-1.123 l -4.619,-0.035 -1.461,-4.382 c -0.189,-0.567 -0.992,-0.567 -1.181,0 z"
   id="path2869" />&#10;	<path
   style="fill:#f5f5f5"
   d="m 204.198,102.304 -1.461,4.382 -4.619,0.035 c -0.598,0.004 -0.846,0.768 -0.365,1.123 l 3.716,2.744 -1.394,4.404 c -0.18,0.57 0.469,1.042 0.956,0.694 l 3.758,-2.686 3.758,2.686 c 0.487,0.348 1.135,-0.124 0.956,-0.694 l -1.394,-4.404 3.715,-2.744 c 0.481,-0.355 0.233,-1.119 -0.365,-1.123 l -4.619,-0.035 -1.461,-4.382 c -0.189,-0.567 -0.992,-0.567 -1.181,0 z"
   id="path2871" />&#10;	<path
   style="fill:#f5f5f5"
   d="m 236.74,163.05 -1.461,4.382 -4.619,0.035 c -0.598,0.004 -0.846,0.768 -0.365,1.123 l 3.715,2.744 -1.394,4.404 c -0.18,0.57 0.469,1.042 0.956,0.694 l 3.758,-2.686 3.758,2.686 c 0.487,0.348 1.135,-0.124 0.956,-0.694 l -1.394,-4.404 3.715,-2.744 c 0.481,-0.355 0.233,-1.119 -0.365,-1.123 l -4.619,-0.035 -1.461,-4.382 c -0.188,-0.567 -0.991,-0.567 -1.18,0 z"
   id="path2873" />&#10;	<path
   style="fill:#f5f5f5"
   d="m 269.283,163.05 -1.461,4.382 -4.619,0.035 c -0.598,0.004 -0.846,0.768 -0.365,1.123 l 3.716,2.744 -1.394,4.404 c -0.18,0.57 0.469,1.042 0.956,0.694 l 3.758,-2.686 3.758,2.686 c 0.487,0.348 1.135,-0.124 0.956,-0.694 l -1.394,-4.404 3.716,-2.744 c 0.481,-0.355 0.233,-1.119 -0.365,-1.123 l -4.619,-0.035 -1.461,-4.382 c -0.191,-0.567 -0.993,-0.567 -1.182,0 z"
   id="path2875" />&#10;	<path
   style="fill:#f5f5f5"
   d="m 236.74,102.304 -1.461,4.382 -4.619,0.035 c -0.598,0.004 -0.846,0.768 -0.365,1.123 l 3.715,2.744 -1.394,4.404 c -0.18,0.57 0.469,1.042 0.956,0.694 l 3.758,-2.686 3.758,2.686 c 0.487,0.348 1.135,-0.124 0.956,-0.694 l -1.394,-4.404 3.715,-2.744 c 0.481,-0.355 0.233,-1.119 -0.365,-1.123 l -4.619,-0.035 -1.461,-4.382 c -0.188,-0.567 -0.991,-0.567 -1.18,0 z"
   id="path2877" />&#10;	<path
   style="fill:#f5f5f5"
   d="m 269.283,102.304 -1.461,4.382 -4.619,0.035 c -0.598,0.004 -0.846,0.768 -0.365,1.123 l 3.716,2.744 -1.394,4.404 c -0.18,0.57 0.469,1.042 0.956,0.694 l 3.758,-2.686 3.758,2.686 c 0.487,0.348 1.135,-0.124 0.956,-0.694 l -1.394,-4.404 3.716,-2.744 c 0.481,-0.355 0.233,-1.119 -0.365,-1.123 l -4.619,-0.035 -1.461,-4.382 c -0.191,-0.567 -0.993,-0.567 -1.182,0 z"
   id="path2879" />&#10;</g><g
     id="g2883"
     transform="translate(0,-88.276)">&#10;</g><g
     id="g2885"
     transform="translate(0,-88.276)">&#10;</g><g
     id="g2887"
     transform="translate(0,-88.276)">&#10;</g><g
     id="g2889"
     transform="translate(0,-88.276)">&#10;</g><g
     id="g2891"
     transform="translate(0,-88.276)">&#10;</g><g
     id="g2893"
     transform="translate(0,-88.276)">&#10;</g><g
     id="g2895"
     transform="translate(0,-88.276)">&#10;</g><g
     id="g2897"
     transform="translate(0,-88.276)">&#10;</g><g
     id="g2899"
     transform="translate(0,-88.276)">&#10;</g><g
     id="g2901"
     transform="translate(0,-88.276)">&#10;</g><g
     id="g2903"
     transform="translate(0,-88.276)">&#10;</g><g
     id="g2905"
     transform="translate(0,-88.276)">&#10;</g><g
     id="g2907"
     transform="translate(0,-88.276)">&#10;</g><g
     id="g2909"
     transform="translate(0,-88.276)">&#10;</g><g
     id="g2911"
     transform="translate(0,-88.276)">&#10;</g></g></svg>
